<svg width="32" height="32" viewBox="0 0 32 32" fill="none" xmlns="http://www.w3.org/2000/svg">
<g id="Alation logomark 1" clip-path="url(#clip0_652_650)">
<path id="Vector" d="M1.11423 23.3267C0.811837 23.3267 0.515071 23.2036 0.299716 22.9728C-0.0233796 22.6269 -0.0923953 22.1144 0.12756 21.6952L6.78207 9.01151C6.93199 8.7256 7.1986 8.51893 7.51287 8.44481C7.82701 8.37068 8.15791 8.43663 8.41979 8.6254L16.308 14.3111L30.4376 8.09436C30.8696 7.90432 31.3744 8.00707 31.6976 8.35087C32.0208 8.69467 32.0924 9.20488 31.8761 9.62433L25.4577 22.0755C25.3092 22.3637 25.0424 22.5728 24.7272 22.6484C24.4119 22.7239 24.0793 22.6583 23.8163 22.4688L16.0388 16.8632L1.56244 23.2323C1.41803 23.2959 1.26542 23.3267 1.11423 23.3267ZM8.15843 11.1832L3.57936 19.9111L13.942 15.3519L8.15843 11.1832ZM18.4048 15.8221L24.07 19.9055L28.454 11.401L18.4048 15.8221Z" fill="#F47C20"/>
</g>
<defs>
<clipPath id="clip0_652_650">
<rect width="32" height="32" fill="white"/>
</clipPath>
</defs>
</svg>
