<svg width="32" height="32" viewBox="0 0 32 32" fill="none" xmlns="http://www.w3.org/2000/svg">
<g id="devicon:azure">
<path id="Vector" d="M10.7363 1.11746H20.084L10.3804 29.8685C10.2807 30.164 10.0908 30.4208 9.8375 30.6027C9.58416 30.7846 9.28013 30.8825 8.96825 30.8824H1.69359C1.45733 30.8824 1.22445 30.8261 1.01423 30.7183C0.804001 30.6105 0.622456 30.4542 0.484596 30.2623C0.346681 30.0704 0.256483 29.8485 0.221481 29.6148C0.186478 29.3811 0.207679 29.1425 0.283326 28.9187L9.32415 2.13117C9.42391 1.83568 9.6138 1.57892 9.86711 1.397C10.1204 1.21507 10.4244 1.11715 10.7363 1.117V1.11746Z" fill="url(#paint0_linear_652_724)"/>
<path id="Vector_2" d="M24.3199 20.4017H9.49665C9.35881 20.4015 9.22409 20.4427 9.11006 20.5202C8.99603 20.5976 8.90798 20.7076 8.8574 20.8359C8.80682 20.9641 8.79606 21.1046 8.82652 21.239C8.85698 21.3734 8.92724 21.4956 9.02815 21.5895L18.5532 30.48C18.8306 30.7385 19.1957 30.8823 19.5749 30.8825H27.9684L24.3199 20.4017Z" fill="#0078D4"/>
<path id="Vector_3" d="M10.7369 1.11744C10.4215 1.11612 10.1141 1.21571 9.85941 1.40166C9.60475 1.58761 9.41627 1.85015 9.32153 2.15091L0.29518 28.8943C0.214655 29.1189 0.189406 29.3597 0.221569 29.5962C0.253731 29.8327 0.34236 30.0579 0.479962 30.2529C0.617564 30.4479 0.800093 30.6069 1.01212 30.7165C1.22415 30.8261 1.45943 30.883 1.69809 30.8824H9.1607C9.43864 30.8328 9.69843 30.7103 9.91351 30.5274C10.1286 30.3445 10.2912 30.1077 10.3849 29.8414L12.1848 24.5364L18.6146 30.5334C18.884 30.7563 19.222 30.8795 19.5716 30.8824H27.9339L24.2663 20.4017L13.5748 20.4042L20.1184 1.11744H10.7369Z" fill="url(#paint1_linear_652_724)"/>
<path id="Vector_4" d="M22.6757 2.12975C22.576 1.83473 22.3864 1.57838 22.1334 1.39678C21.8804 1.21519 21.5768 1.11749 21.2654 1.11743H10.8477C11.159 1.11753 11.4625 1.21526 11.7155 1.39685C11.9684 1.57844 12.158 1.83476 12.2577 2.12975L21.2987 28.9184C21.3744 29.1423 21.3957 29.381 21.3608 29.6147C21.3259 29.8485 21.2358 30.0705 21.098 30.2625C20.9602 30.4545 20.7786 30.611 20.5683 30.7188C20.358 30.8267 20.1251 30.8829 19.8887 30.8828H30.3069C30.5432 30.8827 30.776 30.8263 30.9862 30.7184C31.1963 30.6104 31.3778 30.454 31.5155 30.2621C31.6533 30.0701 31.7433 29.8482 31.7783 29.6145C31.8133 29.3809 31.7922 29.1423 31.7168 28.9184L22.6757 2.12975Z" fill="url(#paint2_linear_652_724)"/>
</g>
<defs>
<linearGradient id="paint0_linear_652_724" x1="14.1434" y1="3.32316" x2="4.43555" y2="32.002" gradientUnits="userSpaceOnUse">
<stop stop-color="#114A8B"/>
<stop offset="1" stop-color="#0669BC"/>
</linearGradient>
<linearGradient id="paint1_linear_652_724" x1="17.1763" y1="16.6883" x2="14.9309" y2="17.4474" gradientUnits="userSpaceOnUse">
<stop stop-opacity="0.3"/>
<stop offset="0.071" stop-opacity="0.2"/>
<stop offset="0.321" stop-opacity="0.1"/>
<stop offset="0.623" stop-opacity="0.05"/>
<stop offset="1" stop-opacity="0"/>
</linearGradient>
<linearGradient id="paint2_linear_652_724" x1="15.9407" y1="2.48657" x2="26.597" y2="30.8766" gradientUnits="userSpaceOnUse">
<stop stop-color="#3CCBF4"/>
<stop offset="1" stop-color="#2892DF"/>
</linearGradient>
</defs>
</svg>
