<svg width="25" height="33" viewBox="0 0 25 33" fill="none" xmlns="http://www.w3.org/2000/svg">
<g id="Group">
<path id="Vector" d="M17.1098 16.5H20.4098C20.7098 16.5 20.9098 16.3 20.9098 16C20.9098 15.9 20.9098 15.9 20.9098 15.8L15.2098 0.3C15.1098 0.1 15.0098 0 14.8098 0H11.5098C11.2098 0 11.0098 0.2 11.0098 0.5C11.0098 0.6 11.0098 0.6 11.0098 0.7L16.7098 16.3C16.7098 16.4 16.9098 16.5 17.1098 16.5Z" fill="#0073FF"/>
<path id="Vector_2" d="M16.51 33H19.81C20.11 33 20.31 32.8 20.31 32.5C20.31 32.4 20.31 32.4 20.31 32.3L8.50996 0.3C8.40996 0.1 8.20996 0 8.00996 0H4.70996C4.40996 0 4.20996 0.2 4.20996 0.5C4.20996 0.6 4.20996 0.6 4.20996 0.7L16.01 32.7C16.11 32.9 16.31 33 16.51 33Z" fill="#0073FF"/>
<path id="Vector_3" d="M10.0102 33H13.3102C13.6102 33 13.8102 32.8 13.8102 32.5C13.8102 32.4 13.8102 32.4 13.8102 32.3L8.11016 16.8C8.01016 16.6 7.91016 16.5 7.71016 16.5H4.41016C4.11016 16.5 3.91016 16.7 3.91016 17C3.91016 17.1 3.91016 17.1 3.91016 17.2L9.61016 32.7C9.61016 32.9 9.81016 33 10.0102 33Z" fill="#0073FF"/>
<path id="Vector_4" d="M17.5098 0.7L20.2098 8C20.3098 8.2 20.4098 8.3 20.6098 8.3H23.9098C24.2098 8.3 24.4098 8.1 24.4098 7.8C24.4098 7.7 24.4098 7.7 24.4098 7.6L21.7098 0.3C21.6098 0.1 21.5098 0 21.3098 0H18.0098C17.7098 0 17.5098 0.2 17.5098 0.5C17.5098 0.6 17.5098 0.6 17.5098 0.7Z" fill="#0073FF"/>
<path id="Vector_5" d="M3.90996 33H7.20996C7.50996 33 7.70996 32.8 7.70996 32.5C7.70996 32.4 7.70996 32.4 7.70996 32.3L5.00996 25C4.90996 24.8 4.70996 24.7 4.50996 24.7H1.20996C0.909961 24.7 0.709961 24.9 0.709961 25.2C0.709961 25.3 0.709961 25.3 0.709961 25.4L3.40996 32.7C3.50996 32.9 3.70996 33 3.90996 33Z" fill="#0073FF"/>
</g>
</svg>
