<svg width="45" height="32" viewBox="0 0 45 32" fill="none" xmlns="http://www.w3.org/2000/svg">
<g id="logos:docker-icon" clip-path="url(#clip0_652_700)">
<path id="Vector" d="M44.0819 12.1941C43.0847 11.5022 40.7996 11.2427 39.0131 11.5887C38.8055 9.85894 37.8498 8.3456 36.1879 7.00506L35.2324 6.31317L34.5675 7.30776C33.7367 8.60506 33.3212 10.4213 33.4458 12.151C33.4873 12.7562 33.695 13.8373 34.3183 14.7887C33.7367 15.1346 32.5318 15.567 30.9531 15.567H0.91458L0.831553 15.913C0.540613 17.6426 0.540613 23.0478 3.94749 27.199C6.5234 30.3555 10.3458 31.9555 15.3729 31.9555C26.2581 31.9555 34.3183 26.7231 38.0991 17.2534C39.5948 17.2966 42.7939 17.2534 44.4143 14.0101C44.4559 13.9236 44.5389 13.7507 44.8297 13.1022L44.9959 12.7562L44.0819 12.1941ZM24.9286 0H20.3586V4.32415H24.9286V0ZM24.9286 5.18902H20.3586V9.51317H24.9286V5.18902ZM19.5275 5.18902H14.9576V9.51317H19.5275V5.18902ZM14.1264 5.18902H9.55631V9.51317H14.1264V5.18902ZM8.72535 10.378H4.15523V14.7022H8.72518L8.72535 10.378ZM14.1264 10.378H9.55631V14.7022H14.1264V10.378ZM19.5275 10.378H14.9576V14.7022H19.5275V10.378ZM24.9288 10.378H20.3585V14.7022H24.9288V10.378ZM30.3298 10.378H25.7596V14.7022H30.3298V10.378Z" fill="#2396ED"/>
</g>
<defs>
<clipPath id="clip0_652_700">
<rect width="44.29" height="32" fill="white" transform="translate(0.709961)"/>
</clipPath>
</defs>
</svg>
