<svg width="61" height="61" viewBox="0 0 61 61" fill="none" xmlns="http://www.w3.org/2000/svg">
<g id="google_bigquery-icon 1" clip-path="url(#clip0_583_834)">
<path id="Vector" d="M13.6971 55.0341L0.645195 32.4273C-0.0523047 31.2198 -0.0523047 29.731 0.645195 28.5235L13.6971 5.91757C14.3936 4.71101 15.6799 3.96757 17.0721 3.9657H43.188C44.5755 3.97226 45.8552 4.7157 46.5489 5.91757L59.5989 28.5235C60.2964 29.731 60.2964 31.2198 59.5989 32.4273L46.5471 55.0341C45.8505 56.2407 44.5643 56.9841 43.1721 56.986H17.0627C15.6724 56.9813 14.3908 56.2379 13.6943 55.0341H13.6971Z" fill="#4386FA"/>
<path id="Vector_2" opacity="0.1" d="M38.2758 23.1957C38.2758 23.1957 41.9039 31.8985 36.9577 36.8316C32.0114 41.7647 23.0049 38.6072 23.0049 38.6072L41.3255 56.9785H43.1855C44.5786 56.9766 45.8649 56.2322 46.5605 55.0266L55.2005 40.066L38.2758 23.1957Z" fill="black"/>
<path id="Vector_3" d="M42.5594 41.0035L38.5591 36.9938C38.5156 36.9492 38.4657 36.9113 38.411 36.8813C40.1126 34.6896 40.9145 31.9315 40.6534 29.1691C40.3923 26.4067 39.0878 23.8478 37.0057 22.0136C34.9236 20.1795 32.2205 19.2082 29.4473 19.2977C26.674 19.3871 24.0391 20.5305 22.0795 22.4949C20.1199 24.4594 18.983 27.097 18.9003 29.8705C18.8177 32.644 19.7957 35.3447 21.6349 37.4223C23.4741 39.4998 26.0363 40.798 28.7993 41.0524C31.5624 41.3067 34.3184 40.498 36.506 38.791C36.5345 38.8426 36.5702 38.89 36.6119 38.9316L40.6216 42.9413C40.7394 43.059 40.8991 43.1251 41.0655 43.1251C41.232 43.1251 41.3917 43.059 41.5094 42.9413L42.5594 41.8913C42.6771 41.7736 42.7432 41.6139 42.7432 41.4474C42.7432 41.281 42.6771 41.1213 42.5594 41.0035ZM29.7841 38.4104C28.1616 38.4106 26.5755 37.9296 25.2264 37.0283C23.8772 36.127 22.8257 34.8459 22.2047 33.3469C21.5837 31.8479 21.4211 30.1985 21.7376 28.6072C22.0541 27.0158 22.8354 25.5541 23.9827 24.4068C25.13 23.2595 26.5917 22.4782 28.1831 22.1617C29.7744 21.8452 31.4239 22.0078 32.9228 22.6288C34.4218 23.2497 35.7029 24.3013 36.6042 25.6504C37.5055 26.9996 37.9865 28.5857 37.9863 30.2082C37.9861 32.3835 37.1218 34.4696 35.5837 36.0078C34.0455 37.5459 31.9594 38.4101 29.7841 38.4104ZM24.5407 29.7704V33.1604C25.0629 34.082 25.8185 34.8507 26.7326 35.387V29.7498L24.5407 29.7704ZM28.6422 26.9598V36.121C29.3668 36.2545 30.1096 36.2545 30.8341 36.121V26.9598H28.6422ZM34.9835 33.1529V31.1448H32.7935V35.3635C33.7063 34.8287 34.4622 34.063 34.9854 33.1435L34.9835 33.1529Z" fill="white"/>
</g>
<defs>
<clipPath id="clip0_583_834">
<rect width="60" height="60" fill="white" transform="translate(0.12207 0.475342)"/>
</clipPath>
</defs>
</svg>
