<svg width="61" height="61" viewBox="0 0 61 61" fill="none" xmlns="http://www.w3.org/2000/svg">
<g id="logos:snowflake-icon" clip-path="url(#clip0_583_832)">
<path id="Vector" d="M23.5803 38.6647C25.4979 38.801 27.0172 40.3716 27.057 42.2981L27.0577 42.3753V56.9859C27.0577 59.045 25.3716 60.7134 23.3012 60.7134C21.2459 60.7134 19.5805 59.0852 19.5407 57.0603L19.54 56.9859V48.813L12.3852 52.9031C10.5911 53.9377 8.29675 53.3254 7.2551 51.5471C6.23157 49.7871 6.81604 47.5377 8.55886 46.4894L8.62827 46.4487L21.3989 39.1511C22.059 38.7696 22.8206 38.5998 23.5803 38.6647ZM38.7452 39.101L38.8351 39.1511L51.6031 46.4487C53.4024 47.4784 54.0127 49.764 52.9786 51.5471C51.9556 53.3024 49.7045 53.9217 47.9191 52.9426L47.8487 52.9031L40.6989 48.813V56.9859C40.6989 59.045 39.0179 60.7134 36.9374 60.7134C34.8822 60.7134 33.2212 59.0852 33.1814 57.0603L33.1807 56.9859V42.3753C33.1807 40.4137 34.7106 38.8026 36.6584 38.6647C37.3572 38.6054 38.0833 38.7424 38.7454 39.101M5.57063 20.1516L5.64122 20.1908L18.4022 27.4932C19.2993 28.0059 19.8982 28.8191 20.1509 29.7294C20.2349 30.0226 20.2732 30.3153 20.288 30.6087C20.2975 31.0134 20.2445 31.4238 20.117 31.8217C19.8472 32.6904 19.2671 33.4295 18.4873 33.8979L18.4022 33.948L5.64122 41.2553C3.8398 42.2828 1.5431 41.6748 0.509452 39.897C-0.519018 38.1323 0.0656874 35.8939 1.81392 34.844L1.88263 34.804L9.01345 30.728L1.88263 26.641C0.0809815 25.6101 -0.534548 23.337 0.509217 21.5567C1.52969 19.7972 3.78028 19.1793 5.57063 20.1516ZM59.7299 21.5567C60.7711 23.3367 60.1553 25.6101 58.3544 26.6403L51.2231 30.7273L58.3544 34.8033C60.1553 35.8353 60.7709 38.1092 59.7299 39.8965C58.6906 41.6744 56.392 42.2824 54.5974 41.2548L41.8269 33.9478C40.9753 33.4567 40.384 32.6866 40.1217 31.8214C39.9972 31.4296 39.9402 31.0194 39.9532 30.6085C39.9607 30.3111 40.0052 30.0157 40.0854 29.7292C40.3505 28.7844 40.9758 27.9814 41.8269 27.493L54.5974 20.1906C56.392 19.1631 58.6906 19.7741 59.7299 21.5567ZM30.8965 23.7588C31.1127 23.7588 31.4109 23.8803 31.5626 24.0351L36.8704 29.2883C37.0217 29.4384 37.1445 29.7363 37.1445 29.9511V31.5C37.1445 31.7099 37.0217 32.0076 36.8704 32.1556L31.5626 37.409C31.4109 37.5633 31.1174 37.6897 30.8965 37.6897H29.3356C29.1212 37.6897 28.8231 37.5633 28.669 37.409L23.364 32.1556C23.212 32.0076 23.0895 31.7099 23.0895 31.5V29.9511C23.0895 29.7363 23.212 29.4381 23.364 29.2883L28.669 24.0351C28.8231 23.8803 29.1212 23.7588 29.3356 23.7588H30.8965ZM30.1454 28.2421H30.0859C29.8718 28.2421 29.5737 28.3664 29.4245 28.516L27.8876 30.0323C27.7334 30.1892 27.6156 30.485 27.6156 30.6972V30.7565C27.6156 30.9661 27.7334 31.2593 27.8876 31.412L29.4245 32.9325C29.5758 33.0826 29.8716 33.2064 30.0857 33.2064H30.1454C30.36 33.2064 30.6584 33.0826 30.8099 32.9325L32.3466 31.412C32.4982 31.2593 32.6278 30.9661 32.6278 30.7565V30.6972C32.6278 30.485 32.4982 30.189 32.3466 30.0323L30.8099 28.516C30.6584 28.3664 30.36 28.2421 30.1454 28.2421ZM36.9374 0.737671C38.9927 0.737671 40.6582 2.36661 40.6982 4.38591L40.6989 4.46002V12.6356L47.8487 8.54049C49.6454 7.51132 51.9422 8.12167 52.9786 9.90144C53.4694 10.7462 53.6076 11.7503 53.3632 12.6962C53.1187 13.6422 52.5114 14.4536 51.6727 14.9548L51.6031 14.9956L38.8351 22.3C38.1751 22.678 37.4162 22.8474 36.6582 22.7859C34.7363 22.6454 33.221 21.0723 33.1814 19.1478L33.1807 19.0706V4.46002C33.181 2.40638 34.8574 0.737671 36.9374 0.737671ZM23.3012 0.737671C25.3466 0.737671 27.017 2.36661 27.057 4.38591L27.0577 4.46002V19.0706C27.0577 21.0299 25.5236 22.6436 23.58 22.7859C22.8555 22.8448 22.1293 22.6933 21.4887 22.3497L21.3989 22.3L8.62827 14.9956C6.83157 13.9654 6.21816 11.6894 7.2551 9.90144C8.28333 8.14496 10.5318 7.52732 12.3151 8.50144L12.3852 8.54049L19.54 12.6356V4.46002C19.54 2.40638 21.221 0.737671 23.3012 0.737671Z" fill="#29B5E8"/>
</g>
<defs>
<clipPath id="clip0_583_832">
<rect width="60.237" height="60" fill="white" transform="translate(0 0.737671)"/>
</clipPath>
</defs>
</svg>
