<svg width="32" height="32" viewBox="0 0 32 32" fill="none" xmlns="http://www.w3.org/2000/svg">
<g id="logos:airflow-icon" clip-path="url(#clip0_666_1284)">
<path id="Vector" d="M0.515879 31.8717L15.8369 16.1669C15.8842 16.1202 15.9135 16.0583 15.9198 15.9921C15.9261 15.9259 15.9088 15.8596 15.8711 15.8049C14.9395 14.5041 13.2203 14.2786 12.5833 13.4045C10.696 10.8156 10.2171 9.35024 9.40613 9.44099C9.34954 9.44912 9.29751 9.4766 9.25888 9.51874L3.72438 15.1922C0.540254 18.4535 0.082629 25.6421 4.04416e-06 31.6619C-0.000307026 31.7218 0.0173337 31.7804 0.0506529 31.8302C0.0839721 31.88 0.131443 31.9187 0.186948 31.9413C0.242453 31.9639 0.303448 31.9693 0.362074 31.9569C0.4207 31.9445 0.474269 31.9149 0.515879 31.8717Z" fill="#017CEE"/>
<path id="Vector_2" d="M31.8719 31.4841L16.167 16.162C16.1202 16.1146 16.0583 16.0852 15.992 16.0789C15.9257 16.0726 15.8593 16.0899 15.8045 16.1277C14.5038 17.0599 14.2783 18.7786 13.4041 19.4156C10.8151 21.3029 9.34975 21.7819 9.4405 22.5927C9.44875 22.6491 9.47625 22.701 9.51825 22.7395L15.1919 28.274C18.4531 31.4581 25.6416 31.9157 31.6615 31.9984C31.7211 31.9984 31.7794 31.9806 31.8288 31.9474C31.8783 31.9142 31.9168 31.867 31.9394 31.8119C31.9619 31.7567 31.9676 31.6961 31.9555 31.6377C31.9435 31.5793 31.9144 31.5259 31.8719 31.4841Z" fill="#00AD46"/>
<path id="Vector_3" d="M15.1913 28.2756C13.4084 26.5362 12.5823 23.0956 15.9991 16.0006C10.4444 18.483 8.49805 21.7459 9.4553 22.6802L15.1913 28.2756Z" fill="#04D659"/>
<path id="Vector_4" d="M31.4839 0.128745L16.1634 15.8337C16.116 15.8804 16.0866 15.9423 16.0804 16.0084C16.0741 16.0746 16.0914 16.1409 16.1292 16.1956C17.0613 17.4964 18.7794 17.7219 19.417 18.596C21.3043 21.185 21.7837 22.6504 22.5942 22.5596C22.6508 22.5515 22.7029 22.524 22.7414 22.4819L28.2759 16.8082C31.46 13.547 31.9177 6.3585 32.0003 0.338745C32.0004 0.278868 31.9826 0.22033 31.9492 0.170636C31.9158 0.120942 31.8683 0.0823547 31.8128 0.0598207C31.7573 0.0372866 31.6964 0.0318323 31.6378 0.0441567C31.5792 0.0564811 31.5256 0.0860228 31.4839 0.128995" fill="#00C7D4"/>
<path id="Vector_5" d="M28.2784 16.8082C26.5391 18.5911 23.0984 19.4174 16.0029 16.0005C18.4853 21.5551 21.7483 23.5016 22.6826 22.5444L28.2784 16.8082Z" fill="#11E1EE"/>
<path id="Vector_6" d="M0.127361 0.516381L15.8321 15.837C15.9286 15.9345 16.0811 15.949 16.1941 15.8711C17.4949 14.939 17.7204 13.2203 18.5945 12.5833C21.1835 10.696 22.6489 10.2171 22.5581 9.40613C22.5498 9.34961 22.5223 9.29764 22.4804 9.25888L16.8067 3.72438C13.5455 0.540257 6.35699 0.0826314 0.337111 6.36762e-06C0.277094 -0.000384585 0.218339 0.0172352 0.168442 0.0505881C0.118545 0.083941 0.0797982 0.131494 0.0572113 0.1871C0.0346244 0.242705 0.0292353 0.303808 0.0417408 0.362508C0.0542463 0.421209 0.0840712 0.47481 0.127361 0.516381Z" fill="#E43921"/>
<path id="Vector_7" d="M16.8097 3.72498C18.5926 5.46435 19.4187 8.90497 16.002 16.0005C21.5566 13.5181 23.503 10.2546 22.5457 9.32085L16.8097 3.72498Z" fill="#FF7557"/>
<path id="Vector_8" d="M3.72461 15.1929C5.46398 13.41 8.90461 12.5838 16.0002 16.0005C13.5177 10.446 10.2549 8.49951 9.32048 9.45676L3.72461 15.1929Z" fill="#0CB6FF"/>
<path id="Vector_9" d="M16.0023 16.6827C16.3805 16.6827 16.6871 16.3761 16.6871 15.9979C16.6871 15.6196 16.3805 15.313 16.0023 15.313C15.624 15.313 15.3174 15.6196 15.3174 15.9979C15.3174 16.3761 15.624 16.6827 16.0023 16.6827Z" fill="#4A4848"/>
</g>
<defs>
<clipPath id="clip0_666_1284">
<rect width="32" height="32" fill="white"/>
</clipPath>
</defs>
</svg>
