<svg width="55" height="74" viewBox="0 0 55 74" fill="none" xmlns="http://www.w3.org/2000/svg">
<g id="logos:microsoft-power-bi" clip-path="url(#clip0_577_485)">
<g id="Mask group">
<mask id="mask0_577_485" style="mask-type:luminance" maskUnits="userSpaceOnUse" x="0" y="0" width="55" height="74">
<g id="Group">
<path id="Vector" d="M30.556 3.05546C30.556 1.3681 31.9241 0 33.6115 0H51.9446C53.632 0 55.0001 1.3681 55.0001 3.05546V70.2768C55.0001 71.9642 53.632 73.3321 51.9446 73.3321H3.05644C1.36908 73.3321 0.000976562 71.9642 0.000976562 70.2766V39.7218C0.000976562 38.0343 1.36908 36.6664 3.05644 36.6664H15.2787V21.3886C15.2787 19.7011 16.6466 18.333 18.3342 18.333H30.556V3.05546Z" fill="white"/>
</g>
</mask>
<g mask="url(#mask0_577_485)">
<path id="Vector_2" d="M54.9998 0V73.3321H30.5557V0H54.9998Z" fill="url(#paint0_linear_577_485)"/>
</g>
</g>
<g id="Mask group_2">
<mask id="mask1_577_485" style="mask-type:luminance" maskUnits="userSpaceOnUse" x="0" y="0" width="55" height="74">
<g id="Group_2">
<path id="Vector_3" d="M30.556 3.05546C30.556 1.3681 31.9241 0 33.6115 0H51.9446C53.632 0 55.0001 1.3681 55.0001 3.05546V70.2768C55.0001 71.9642 53.632 73.3321 51.9446 73.3321H3.05644C1.36908 73.3321 0.000976562 71.9642 0.000976562 70.2766V39.7218C0.000976562 38.0343 1.36908 36.6664 3.05644 36.6664H15.2787V21.3886C15.2787 19.7011 16.6466 18.333 18.3342 18.333H30.556V3.05546Z" fill="white"/>
</g>
</mask>
<g mask="url(#mask1_577_485)">
<path id="Vector_4" d="M39.7226 21.6941V73.6378H15.2783V18.6387H36.667C38.3543 18.6387 39.7224 20.0066 39.7224 21.6941" fill="black" fill-opacity="0.2"/>
</g>
</g>
<g id="Mask group_3">
<mask id="mask2_577_485" style="mask-type:luminance" maskUnits="userSpaceOnUse" x="0" y="0" width="55" height="74">
<g id="Group_3">
<path id="Vector_5" d="M30.556 3.05546C30.556 1.3681 31.9241 0 33.6115 0H51.9446C53.632 0 55.0001 1.3681 55.0001 3.05546V70.2768C55.0001 71.9642 53.632 73.3321 51.9446 73.3321H3.05644C1.36908 73.3321 0.000976562 71.9642 0.000976562 70.2766V39.7218C0.000976562 38.0343 1.36908 36.6664 3.05644 36.6664H15.2787V21.3886C15.2787 19.7011 16.6466 18.333 18.3342 18.333H30.556V3.05546Z" fill="white"/>
</g>
</mask>
<g mask="url(#mask2_577_485)">
<path id="Vector_6" d="M39.7226 22.9164V74.8598H15.2783V19.8607H36.667C38.3543 19.8607 39.7224 21.2288 39.7224 22.9164" fill="black" fill-opacity="0.18"/>
</g>
</g>
<g id="Mask group_4">
<mask id="mask3_577_485" style="mask-type:luminance" maskUnits="userSpaceOnUse" x="0" y="0" width="55" height="74">
<g id="Group_4">
<path id="Vector_7" d="M30.556 3.05546C30.556 1.3681 31.9241 0 33.6115 0H51.9446C53.632 0 55.0001 1.3681 55.0001 3.05546V70.2768C55.0001 71.9642 53.632 73.3321 51.9446 73.3321H3.05644C1.36908 73.3321 0.000976562 71.9642 0.000976562 70.2766V39.7218C0.000976562 38.0343 1.36908 36.6664 3.05644 36.6664H15.2787V21.3886C15.2787 19.7011 16.6466 18.333 18.3342 18.333H30.556V3.05546Z" fill="white"/>
</g>
</mask>
<g mask="url(#mask3_577_485)">
<path id="Vector_8" d="M39.7226 21.3886V73.3321H15.2783V18.3329H36.667C38.3543 18.3329 39.7224 19.701 39.7224 21.3886" fill="url(#paint1_linear_577_485)"/>
</g>
</g>
<g id="Mask group_5">
<mask id="mask4_577_485" style="mask-type:luminance" maskUnits="userSpaceOnUse" x="0" y="0" width="55" height="74">
<g id="Group_5">
<path id="Vector_9" d="M30.556 3.05546C30.556 1.3681 31.9241 0 33.6115 0H51.9446C53.632 0 55.0001 1.3681 55.0001 3.05546V70.2768C55.0001 71.9642 53.632 73.3321 51.9446 73.3321H3.05644C1.36908 73.3321 0.000976562 71.9642 0.000976562 70.2766V39.7218C0.000976562 38.0343 1.36908 36.6664 3.05644 36.6664H15.2787V21.3886C15.2787 19.7011 16.6466 18.333 18.3342 18.333H30.556V3.05546Z" fill="white"/>
</g>
</mask>
<g mask="url(#mask4_577_485)">
<path id="Vector_10" d="M0.000976562 36.6661V73.3321H24.4451V39.7218C24.4451 38.0342 23.077 36.6664 21.3896 36.6664L0.000976562 36.6661Z" fill="url(#paint2_linear_577_485)"/>
</g>
</g>
</g>
<defs>
<linearGradient id="paint0_linear_577_485" x1="1071.7" y1="-1.78087e-05" x2="3773.48" y2="5727.01" gradientUnits="userSpaceOnUse">
<stop stop-color="#E6AD10"/>
<stop offset="1" stop-color="#C87E0E"/>
</linearGradient>
<linearGradient id="paint1_linear_577_485" x1="996.033" y1="18.3329" x2="3249.97" y2="4389.76" gradientUnits="userSpaceOnUse">
<stop stop-color="#F6D751"/>
<stop offset="1" stop-color="#E6AD10"/>
</linearGradient>
<linearGradient id="paint2_linear_577_485" x1="678.911" y1="36.6661" x2="2051.18" y2="3288.86" gradientUnits="userSpaceOnUse">
<stop stop-color="#F9E589"/>
<stop offset="1" stop-color="#F6D751"/>
</linearGradient>
<clipPath id="clip0_577_485">
<rect width="55" height="73.4754" fill="white"/>
</clipPath>
</defs>
</svg>
