<svg width="20" height="30" viewBox="0 0 20 30" fill="none" xmlns="http://www.w3.org/2000/svg">
<g id="logos:looker-icon" clip-path="url(#clip0_596_220)">
<path id="Vector" d="M9.93667 2.25463e-06C9.46145 0.000209384 8.99522 0.129596 8.58786 0.374323C8.18049 0.619049 7.84732 0.96991 7.62397 1.38937C7.40062 1.80884 7.2955 2.28113 7.31985 2.75573C7.3442 3.23032 7.49711 3.68938 7.76221 4.08378L8.8818 2.96564C8.84488 2.85412 8.82624 2.73736 8.8266 2.61988C8.8266 2.00935 9.32149 1.51446 9.93195 1.51446C10.5424 1.51446 11.0374 2.00935 11.0374 2.61981C11.0374 3.23027 10.5425 3.72523 9.93195 3.72523C9.815 3.72552 9.69878 3.70685 9.58771 3.67003L8.46965 4.78802C8.80897 5.01814 9.19756 5.16541 9.60417 5.21799C10.0108 5.27056 10.4241 5.22696 10.8107 5.09071C11.1974 4.95446 11.5468 4.72935 11.8306 4.43349C12.1144 4.13764 12.3249 3.77929 12.445 3.38728C12.5651 2.99528 12.5915 2.58055 12.5221 2.17647C12.4527 1.77239 12.2895 1.39023 12.0455 1.06074C11.8015 0.731253 11.4836 0.463627 11.1173 0.279394C10.7511 0.095161 10.3467 -0.000535589 9.93667 2.25463e-06Z" fill="#34A853"/>
<path id="Vector_2" d="M8.89471 7.63526C8.8964 6.75026 8.60979 5.8888 8.07824 5.18121L6.62546 6.63254C7.07982 7.46354 6.9163 8.49647 6.22754 9.14659L7.01713 11.0762C7.59286 10.7055 8.0664 10.1962 8.39442 9.59506C8.72243 8.99393 8.89444 8.32006 8.89471 7.63526Z" fill="#FBBC04"/>
<path id="Vector_3" d="M4.83488 9.71819H4.79696C4.47212 9.7182 4.15177 9.6423 3.86147 9.49653C3.57117 9.35076 3.31895 9.13916 3.12495 8.87861C2.93094 8.61807 2.80051 8.31578 2.74406 7.99588C2.68761 7.67598 2.70671 7.34732 2.79983 7.03611C2.89295 6.7249 3.05752 6.43976 3.2804 6.20344C3.50328 5.96711 3.7783 5.78615 4.08353 5.67499C4.38876 5.56382 4.71575 5.52553 5.0384 5.56317C5.36106 5.60081 5.67045 5.71334 5.9419 5.89177L7.38052 4.45315C5.98163 3.31918 4.00614 3.23172 2.51246 4.23778C1.01878 5.24383 0.357324 7.10724 0.882433 8.82981C1.40761 10.5525 2.99616 11.73 4.79696 11.7317C5.07484 11.7319 5.35204 11.7043 5.62447 11.6496L4.83488 9.71819Z" fill="#EA4335"/>
<path id="Vector_4" d="M9.99197 11.3873C9.08269 11.3864 8.17819 11.5189 7.30737 11.7805L8.45855 14.5931C8.95968 14.4689 9.47409 14.4063 9.99037 14.4067C12.9819 14.4076 15.5562 16.5214 16.1391 19.4556C16.7221 22.3897 15.1513 25.3271 12.3873 26.4715C9.6234 27.6158 6.43592 26.6485 4.77415 24.1609C3.11238 21.6734 3.43904 18.3585 5.55444 16.2433C5.99584 15.8032 6.49976 15.4307 7.04993 15.1378L5.91139 12.3332C1.6673 14.4118 -0.342124 19.3437 1.24076 23.7963C2.82378 28.2491 7.49536 30.8058 12.0991 29.7388C16.7028 28.6719 19.7736 24.321 19.2366 19.6258C18.6995 14.9307 14.7256 11.3856 9.99981 11.3857L9.99197 11.3873Z" fill="#4285F4"/>
</g>
<defs>
<clipPath id="clip0_596_220">
<rect width="18.5964" height="30" fill="white" transform="translate(0.702148)"/>
</clipPath>
</defs>
</svg>
