<svg width="31" height="30" viewBox="0 0 31 30" fill="none" xmlns="http://www.w3.org/2000/svg">
<g id="logos:tableau-icon" clip-path="url(#clip0_596_227)">
<path id="Vector" d="M14.8127 1.38562V2.77697H12.3242V3.68187H14.8127V6.45311H15.7855V3.68187H18.3362V2.77697H15.7855V0H14.8127V1.38562Z" fill="#7099A6"/>
<path id="Vector_2" d="M6.67982 4.91484V6.93392H2.91309V8.20073H6.67982V12.3012H8.07679V8.20073H11.9001V6.93392H8.07679V2.89575H6.67982V4.91484Z" fill="#EB912C"/>
<path id="Vector_3" d="M22.465 4.91484V6.93392H18.6982V8.263H22.465V12.3012H23.9185V8.263H27.6851V6.93392H23.9185V2.89575H22.465V4.91484Z" fill="#59879B"/>
<path id="Vector_4" d="M14.4507 11.7922V14.0545H10.2598V15.7398H14.4507V20.2643H16.1474V15.7398H20.3382V14.0545H16.1474V9.52985H14.4507V11.7922Z" fill="#E8762C"/>
<path id="Vector_5" d="M26.7743 12.9345V14.3542H24.2236V15.5022H26.7743V18.3357H28.0469V15.5022H30.5976V14.3542H28.0469V11.5207H26.7743V12.9345Z" fill="#5B6591"/>
<path id="Vector_6" d="M2.48954 13.059V14.4164H0.000976562V15.3778H2.48954V18.0926H3.46221V15.3778L6.01293 15.2873V14.4164H3.46221V11.7017H2.48954V13.059Z" fill="#7099A6"/>
<path id="Vector_7" d="M6.67982 19.4499V21.469H2.91309V22.7981H6.67982V26.8363H8.13333V22.7981H11.9001V21.469H8.13333V17.4308H6.67982V19.4499Z" fill="#C72035"/>
<path id="Vector_8" d="M22.465 19.4499V21.469H18.6982V22.7359H22.465V26.8363H23.9185V22.7359H27.6851V21.469H23.9185V17.4308H22.465V19.4499Z" fill="#1F447E"/>
<path id="Vector_9" d="M14.6943 24.5797V25.9936H12.1436V27.1417H14.6943V29.9752H15.9668V27.1417H18.5175V25.9936H15.9668V23.1601H14.6943V24.5797Z" fill="#5B6591"/>
</g>
<defs>
<clipPath id="clip0_596_227">
<rect width="30.5988" height="30" fill="white"/>
</clipPath>
</defs>
</svg>
