<svg width="61" height="61" viewBox="0 0 61 61" fill="none" xmlns="http://www.w3.org/2000/svg">
<g id="logos:aws-redshift">
<g clip-path="url(#clip0_583_838)">
<path id="Vector" d="M0.12207 0.475342H60.1221V60.4753H0.12207V0.475342Z" fill="url(#paint0_linear_583_838)"/>
<path id="Vector_2" d="M38.2408 26.8533C37.4461 26.8533 36.8001 26.2088 36.8001 25.4161C36.8001 24.6235 37.4461 23.978 38.2408 23.978C39.0349 23.978 39.6808 24.6235 39.6808 25.4161C39.6808 26.2085 39.0349 26.8533 38.2408 26.8533ZM34.5916 35.5936C33.7975 35.5936 33.1518 34.9491 33.1518 34.1564C33.1518 33.364 33.7975 32.7192 34.5916 32.7192C35.3857 32.7192 36.0323 33.3638 36.0323 34.1564C36.0323 34.9491 35.3857 35.5936 34.5916 35.5936ZM25.8337 34.1372C25.0404 34.1372 24.3946 33.4927 24.3946 32.7C24.3946 31.9074 25.0404 31.2619 25.8337 31.2619C26.6287 31.2619 27.2744 31.9074 27.2744 32.7C27.2744 33.4925 26.6287 34.1372 25.8337 34.1372ZM22.1854 42.1493C21.3921 42.1493 20.7454 41.5048 20.7454 40.7121C20.7454 39.9195 21.3921 39.275 22.1854 39.275C22.9802 39.275 23.6259 39.9195 23.6259 40.7121C23.6259 41.5048 22.9802 42.1493 22.1854 42.1493ZM38.2408 22.4827C36.6204 22.4827 35.3018 23.7987 35.3018 25.4161C35.3018 26.4075 35.8 27.2817 36.5575 27.8133L35.1864 31.2844C34.9907 31.2442 34.7914 31.2239 34.5916 31.2239C33.303 31.2239 32.2174 32.0614 31.8227 33.2166L28.7547 32.5205C28.6596 30.9884 27.3935 29.7666 25.8337 29.7666C24.2142 29.7666 22.8963 31.0826 22.8963 32.7C22.8963 33.4559 23.1916 34.1393 23.6641 34.6599L22.3254 37.7935C22.2775 37.7907 22.2332 37.7794 22.1854 37.7794C20.5657 37.7794 19.2471 39.0947 19.2471 40.7121C19.2471 42.3289 20.5657 43.6449 22.1854 43.6449C23.8059 43.6449 25.1245 42.3289 25.1245 40.7121C25.1245 39.6743 24.5789 38.7664 23.7616 38.2446L24.9429 35.4802C25.2264 35.5707 25.5213 35.6325 25.8337 35.6325C26.9899 35.6325 27.9825 34.9575 28.4611 33.9875L31.7111 34.7248C31.9769 36.0708 33.1666 37.0892 34.5916 37.0892C36.2121 37.0892 37.5307 35.7739 37.5307 34.1564C37.5307 33.2822 37.1374 32.5055 36.5275 31.9671L37.9682 28.321C38.0597 28.3301 38.1473 28.3486 38.2408 28.3486C39.8604 28.3486 41.1792 27.0326 41.1792 25.4161C41.1792 23.7987 39.8606 22.4827 38.2408 22.4827ZM30.1221 49.9798C22.8236 49.9798 17.3704 47.7889 17.3704 45.8297V17.839C19.8532 19.8565 25.1086 20.9227 30.1378 20.9227C35.1445 20.9227 40.3776 19.8654 42.8737 17.8653V45.8297C42.8737 47.7891 37.4198 49.9798 30.1221 49.9798ZM30.1378 10.9709C37.6429 10.9709 42.8737 13.1991 42.8737 15.1995C42.8737 17.1987 37.6429 19.4271 30.1378 19.4271C22.6319 19.4271 17.4018 17.1989 17.4018 15.1995C17.4018 13.1991 22.6319 10.9709 30.1378 10.9709ZM44.3721 15.1995C44.3721 11.4816 37.0385 9.47534 30.1378 9.47534C23.2371 9.47534 15.9035 11.4816 15.9035 15.1995C15.9035 15.2053 15.9051 15.2121 15.9051 15.2182H15.8721V45.83C15.8721 49.4967 23.2139 51.4753 30.1221 51.4753C37.0303 51.4753 44.3721 49.4967 44.3721 45.8297V15.218H44.3707C44.3707 15.2121 44.3721 15.2053 44.3721 15.1992" fill="white"/>
</g>
</g>
<defs>
<linearGradient id="paint0_linear_583_838" x1="0.12207" y1="6000.48" x2="6000.12" y2="0.475342" gradientUnits="userSpaceOnUse">
<stop stop-color="#4D27A8"/>
<stop offset="1" stop-color="#A166FF"/>
</linearGradient>
<clipPath id="clip0_583_838">
<rect x="0.12207" y="0.475342" width="60" height="60" rx="10" fill="white"/>
</clipPath>
</defs>
</svg>
