<svg width="33" height="32" viewBox="0 0 33 32" fill="none" xmlns="http://www.w3.org/2000/svg">
<g id="logos:dbt-icon" clip-path="url(#clip0_652_595)">
<path id="Vector" d="M31.3501 1.33088C32.1023 2.05425 32.5942 3.009 32.71 4.05062C32.71 4.48462 32.5942 4.774 32.3337 5.32375C32.0735 5.87337 28.8618 11.4286 27.9071 12.962C27.3573 13.859 27.068 14.9295 27.068 15.971C27.068 17.0416 27.3573 18.0833 27.9071 18.9801C28.8618 20.5136 32.0733 26.0976 32.3338 26.6474C32.5942 27.1971 32.71 27.4574 32.71 27.8915C32.5942 28.9331 32.1312 29.8879 31.3791 30.5823C30.6557 31.3345 29.701 31.8264 28.6882 31.9132C28.2543 31.9132 27.965 31.7975 27.4441 31.537C26.9232 31.2765 21.2525 28.152 19.7191 27.1971C19.6032 27.1392 19.4876 27.0525 19.3428 26.9946L11.7625 22.51C11.936 23.9566 12.5725 25.3454 13.6141 26.358C13.8166 26.5605 14.0191 26.7342 14.2507 26.9077C14.077 26.9945 13.8745 27.0815 13.701 27.1971C12.1675 28.1519 6.58346 31.3634 6.03371 31.6239C5.48396 31.8842 5.22359 32 4.76059 32C3.71896 31.8843 2.76421 31.4212 2.06984 30.6691C1.31746 29.9457 0.825711 28.991 0.709961 27.9494C0.738836 27.5154 0.854586 27.0814 1.08621 26.7052C1.34646 26.1555 4.55809 20.5715 5.51284 19.038C6.06259 18.141 6.35196 17.0995 6.35196 16.029C6.35196 14.9585 6.06259 13.9167 5.51284 13.0199C4.55809 11.4286 1.31759 5.8445 1.08609 5.29475C0.854586 4.9185 0.738836 4.48462 0.709961 4.05062C0.825711 3.009 1.28871 2.05425 2.04084 1.33088C2.76421 0.57875 3.71896 0.11575 4.76059 0C5.19459 0.028875 5.62859 0.144625 6.03371 0.37625C6.49659 0.57875 10.5762 2.95125 12.7462 4.22425L13.238 4.51363C13.4115 4.62929 13.5562 4.71608 13.672 4.774L13.9035 4.91862L21.6285 9.49C21.455 7.754 20.5581 6.16275 19.1692 5.09225C19.343 5.0055 19.5455 4.9185 19.719 4.80288C21.2525 3.84812 26.8365 0.607625 27.3862 0.376125C27.7625 0.144625 28.1963 0.028875 28.6593 0C29.6838 0.116855 30.6355 0.587535 31.3501 1.33088ZM17.1151 18.0543L18.7642 16.405C18.9957 16.1736 18.9957 15.8264 18.7642 15.595L17.115 13.9458C16.8836 13.7143 16.5363 13.7143 16.305 13.9458L14.6557 15.595C14.4242 15.8264 14.4242 16.1736 14.6557 16.405L16.305 18.0543C16.5075 18.2568 16.8837 18.2568 17.1151 18.0543Z" fill="#FF694A"/>
</g>
<defs>
<clipPath id="clip0_652_595">
<rect width="32" height="32" fill="white" transform="translate(0.709961)"/>
</clipPath>
</defs>
</svg>
