<svg width="33" height="32" viewBox="0 0 33 32" fill="none" xmlns="http://www.w3.org/2000/svg">
<g id="mdi:github">
<path id="Vector" d="M16.7103 2.66669C14.9593 2.66669 13.2255 3.01156 11.6078 3.68163C9.99017 4.35169 8.52031 5.33382 7.2822 6.57193C4.78171 9.07242 3.37695 12.4638 3.37695 16C3.37695 21.8934 7.20362 26.8934 12.497 28.6667C13.1636 28.7734 13.377 28.36 13.377 28V25.7467C9.68362 26.5467 8.89695 23.96 8.89695 23.96C8.28362 22.4134 7.41695 22 7.41695 22C6.20362 21.1734 7.51029 21.2 7.51029 21.2C8.84362 21.2934 9.55029 22.5734 9.55029 22.5734C10.7103 24.6 12.6703 24 13.4303 23.68C13.5503 22.8134 13.897 22.2267 14.2703 21.8934C11.3103 21.56 8.20362 20.4134 8.20362 15.3334C8.20362 13.8534 8.71029 12.6667 9.57695 11.72C9.44362 11.3867 8.97695 10 9.71029 8.20002C9.71029 8.20002 10.8303 7.84002 13.377 9.56002C14.4303 9.26669 15.577 9.12002 16.7103 9.12002C17.8436 9.12002 18.9903 9.26669 20.0436 9.56002C22.5903 7.84002 23.7103 8.20002 23.7103 8.20002C24.4436 10 23.977 11.3867 23.8436 11.72C24.7103 12.6667 25.217 13.8534 25.217 15.3334C25.217 20.4267 22.097 21.5467 19.1236 21.88C19.6036 22.2934 20.0436 23.1067 20.0436 24.3467V28C20.0436 28.36 20.257 28.7867 20.937 28.6667C26.2303 26.88 30.0436 21.8934 30.0436 16C30.0436 14.2491 29.6987 12.5152 29.0287 10.8976C28.3586 9.2799 27.3765 7.81004 26.1384 6.57193C24.9003 5.33382 23.4304 4.35169 21.8127 3.68163C20.1951 3.01156 18.4612 2.66669 16.7103 2.66669Z" fill="#222222"/>
</g>
</svg>
