<svg width="32" height="32" viewBox="0 0 32 32" fill="none" xmlns="http://www.w3.org/2000/svg">
<g id="Monte Carlo_logo_secondary 1" clip-path="url(#clip0_652_644)">
<rect width="32" height="32" fill="white"/>
<g id="Group">
<g id="Group_2">
<path id="Vector" d="M31.1745 0H0.825526C0.369314 0 0 0.369314 0 0.825526V31.1745C0 31.6307 0.369314 32 0.825526 32H31.1745C31.6307 32 32 31.6307 32 31.1745V0.825526C32 0.369314 31.6307 0 31.1745 0ZM16.1629 21.127C16.1629 21.2464 16.0652 21.3442 15.9457 21.3442H14.0448C13.9253 21.3442 13.8276 21.2464 13.8276 21.127L13.8167 14.2621L11.0794 21.203C11.0468 21.2899 10.9708 21.3442 10.873 21.3442H9.24372C9.15682 21.3442 9.06992 21.2899 9.03734 21.203L6.31093 14.3489V21.127C6.31093 21.2464 6.21317 21.3442 6.09369 21.3442H4.2797C4.16022 21.3442 4.06246 21.2464 4.06246 21.127V10.8839C4.06246 10.7644 4.16022 10.6667 4.2797 10.6667H7.01697C7.10387 10.6667 7.1799 10.721 7.22335 10.797L10.1018 17.8792L12.8391 10.8079C12.8717 10.721 12.9477 10.6667 13.0455 10.6667H15.9457C16.0652 10.6667 16.1629 10.7644 16.1629 10.8839V21.127ZM29.0998 18.1073C29.002 18.3788 28.85 18.835 28.687 19.1174C28.4698 19.5628 28.1331 19.9756 27.7203 20.3557C27.2967 20.7359 26.797 21.0509 26.1779 21.3225C25.5587 21.5723 24.831 21.7135 23.9837 21.7135H23.962C23.169 21.7135 22.4304 21.5723 21.7461 21.3116C21.0509 21.0401 20.4535 20.649 19.943 20.1494C19.4325 19.6606 19.0414 19.0523 18.7373 18.3571C18.52 17.8357 18.368 17.2492 18.3136 16.6409C18.2919 16.4345 18.2811 16.2281 18.2811 16.0217C18.2811 15.7936 18.2811 15.5655 18.3245 15.3483C18.3788 14.7508 18.5092 14.1969 18.7373 13.6864C19.0523 12.9694 19.4542 12.372 19.9647 11.8724C20.4861 11.3727 21.0726 10.9817 21.757 10.6993C22.4521 10.4277 23.1799 10.2865 23.9294 10.2865C24.7549 10.2865 25.461 10.406 26.0692 10.6449C26.6558 10.8839 27.1772 11.1772 27.6008 11.5574C28.0136 11.9267 28.3286 12.3177 28.5567 12.7522C28.7631 13.0998 28.8934 13.4474 28.9912 13.7624C29.0238 13.871 28.9586 13.9905 28.85 14.0339L27.1229 14.5879C27.0143 14.6205 26.8948 14.5662 26.8513 14.4576C26.797 14.3164 26.7318 14.1643 26.6449 13.9905C26.5255 13.7407 26.3625 13.5126 26.1236 13.2953C25.8955 13.0672 25.6022 12.8826 25.2437 12.7413C24.8961 12.5893 24.4725 12.5132 23.9511 12.5132C23.5601 12.5132 23.169 12.5675 22.7889 12.7196C22.3978 12.8717 22.0394 13.0889 21.7244 13.3822C21.4094 13.6646 21.1595 14.0231 20.964 14.4793C20.7685 14.9355 20.6816 15.446 20.6816 16.0543C20.6816 16.5974 20.7685 17.0754 20.9532 17.4881C21.1378 17.9117 21.3768 18.2702 21.6809 18.5635C21.9959 18.8459 22.3435 19.074 22.7454 19.2261C23.1365 19.3781 23.5601 19.4542 23.9946 19.4542C24.4834 19.4542 24.9179 19.389 25.2872 19.2369C25.6456 19.0849 25.9498 18.9002 26.1779 18.683C26.4277 18.4549 26.6015 18.2159 26.7318 17.9661C26.8296 17.7814 26.9056 17.6185 26.9599 17.4664C26.9925 17.3578 27.112 17.3035 27.2206 17.3361L28.9586 17.8357C29.0781 17.8683 29.1432 17.9986 29.0998 18.1073Z" fill="#0073B4"/>
</g>
</g>
</g>
<defs>
<clipPath id="clip0_652_644">
<rect width="32" height="32" fill="white"/>
</clipPath>
</defs>
</svg>
