<svg width="32" height="32" viewBox="0 0 32 32" fill="none" xmlns="http://www.w3.org/2000/svg">
<g id="simple-icons:apachespark" clip-path="url(#clip0_652_720)">
<path id="Vector" d="M14.4161 0C13.8494 0.0173333 13.2894 0.286667 12.8214 0.806667C12.564 1.09966 12.3433 1.42293 12.1641 1.76933C11.6908 2.65867 11.5974 3.656 11.4228 4.62667C11.0933 6.44189 10.7706 8.25835 10.4548 10.076C10.4188 10.2893 10.3268 10.3787 10.1294 10.44C7.77343 11.1813 5.41343 11.92 3.06676 12.6853C2.5459 12.8486 2.04705 13.0752 1.58143 13.36C0.192097 14.2467 -0.0132362 15.6973 1.0281 16.9733C1.48943 17.536 2.08143 17.9267 2.7401 18.2213C4.20676 18.8747 5.6761 19.5227 7.1401 20.1813C7.16543 20.1947 7.1881 20.1987 7.21076 20.2067H7.20543L8.94676 20.92V21.0173C8.6801 23.724 8.42676 26.4347 8.17343 29.144C8.1201 29.7027 8.15743 30.252 8.3521 30.784C8.77476 31.944 9.7721 32.3147 10.8601 31.7187C11.3561 31.4467 11.7481 31.056 12.1094 30.628C13.9388 28.464 15.7708 26.3027 17.5934 24.132C17.7414 23.9547 17.8668 23.932 18.0774 24.0013L19.4708 24.464H19.4721C19.4988 24.4791 19.5312 24.4924 19.5694 24.504L19.7588 24.56C21.4228 25.1147 23.3321 25.5933 24.9974 26.1467C25.5308 26.3227 25.8268 26.3653 26.3908 26.2773C26.8054 26.2133 27.1801 26.1947 27.4948 25.9627C28.2974 25.5227 28.8214 24.6867 28.8121 23.72C28.8054 23.1507 28.6068 22.636 28.3454 22.1387C27.2521 20.064 26.1628 17.988 25.0641 15.9173C24.9601 15.72 24.9628 15.5933 25.1134 15.4173C26.9548 13.264 28.7881 11.1027 30.6241 8.944C30.9868 8.51733 31.3081 8.06667 31.4948 7.53333C31.9054 6.36267 31.3748 5.44 30.1614 5.212C29.6125 5.11953 29.0499 5.15096 28.5148 5.304C25.8828 5.99867 23.2521 6.692 20.6241 7.39733C20.3908 7.46 20.2774 7.41733 20.1508 7.20533C19.0866 5.41243 18.0106 3.62661 16.9228 1.848C16.678 1.43812 16.3863 1.05822 16.0534 0.716C15.5588 0.222667 14.9841 -0.016 14.4174 0.00133333L14.4161 0ZM14.6454 4.93733C14.7507 5.00965 14.8371 5.10612 14.8974 5.21867C16.0592 7.14578 17.2188 9.07378 18.3761 11.0027C18.4694 11.16 18.5561 11.216 18.7454 11.164C20.7788 10.6173 22.8148 10.08 24.8508 9.54133C25.3397 9.41156 25.8299 9.28311 26.3214 9.156C26.3032 9.25576 26.257 9.34826 26.1881 9.42267C24.5094 11.396 22.8334 13.372 21.1494 15.34C21.0028 15.5133 20.9894 15.6333 21.0961 15.8333C22.3454 18.2373 23.4534 20.2453 24.4268 22.18L19.4988 20.8213L17.3454 20.1027C17.1281 20.0293 17.0121 20.0627 16.8654 20.236C15.2014 22.22 13.5268 24.196 11.8534 26.1747C11.7918 26.2549 11.7085 26.316 11.6134 26.3507L11.7521 24.836C11.9494 22.74 12.1499 20.644 12.3534 18.548C12.3134 18.124 12.5094 18.008 11.9241 17.8213C9.93343 17.0307 7.46276 16.06 5.50276 15.2813C5.59417 15.1978 5.70371 15.1367 5.82276 15.1027C8.21832 14.3418 10.6157 13.584 13.0148 12.8293C13.1841 12.776 13.2801 12.7067 13.2961 12.5187C13.3134 12.3213 13.3628 12.1267 13.3974 11.9307C13.7192 10.1129 14.0419 8.296 14.3654 6.48L14.6454 4.93733Z" fill="#222222"/>
</g>
<defs>
<clipPath id="clip0_652_720">
<rect width="32" height="32" fill="white"/>
</clipPath>
</defs>
</svg>
