<svg width="32" height="32" viewBox="0 0 32 32" fill="none" xmlns="http://www.w3.org/2000/svg">
<g id="simple-icons:amazonredshift" clip-path="url(#clip0_652_574)">
<path id="Vector" d="M22.1852 13.2427C22.0414 13.243 21.899 13.215 21.766 13.1602C21.6331 13.1054 21.5122 13.0249 21.4104 12.9234C21.3086 12.8218 21.2278 12.7012 21.1727 12.5684C21.1176 12.4355 21.0892 12.2931 21.0892 12.1493C21.0992 11.8651 21.219 11.5958 21.4236 11.3982C21.6282 11.2007 21.9015 11.0902 22.1859 11.0902C22.4703 11.0902 22.7436 11.2007 22.9482 11.3982C23.1528 11.5958 23.2727 11.8651 23.2826 12.1493C23.2826 12.752 22.7892 13.2427 22.1852 13.2427ZM19.4039 19.9013C19.1133 19.901 18.8348 19.7854 18.6293 19.5799C18.4238 19.3745 18.3083 19.0959 18.3079 18.8053C18.3079 18.5145 18.4235 18.2355 18.6291 18.0299C18.8348 17.8242 19.1137 17.7087 19.4046 17.7087C19.6954 17.7087 19.9744 17.8242 20.18 18.0299C20.3857 18.2355 20.5012 18.5145 20.5012 18.8053C20.5016 18.9495 20.4734 19.0923 20.4184 19.2255C20.3634 19.3587 20.2825 19.4797 20.1805 19.5816C20.0786 19.6834 19.9574 19.7641 19.8242 19.819C19.6909 19.8739 19.5481 19.9019 19.4039 19.9013ZM12.7319 18.7907C12.588 18.7905 12.4455 18.762 12.3126 18.7067C12.1797 18.6515 12.059 18.5706 11.9573 18.4687C11.8557 18.3668 11.7751 18.2459 11.7202 18.1129C11.6652 17.9798 11.6371 17.8373 11.6372 17.6933C11.6374 17.5494 11.6659 17.4069 11.7212 17.274C11.7764 17.1411 11.8573 17.0204 11.9592 16.9187C12.0611 16.8171 12.182 16.7365 12.3151 16.6816C12.4481 16.6267 12.5906 16.5985 12.7346 16.5987C13.0253 16.599 13.3039 16.7148 13.5092 16.9206C13.7145 17.1264 13.8296 17.4053 13.8292 17.696C13.8289 17.9867 13.7131 18.2653 13.5073 18.4706C13.3015 18.6759 13.0226 18.791 12.7319 18.7907ZM9.95458 24.8947C9.66424 24.8947 9.38573 24.7796 9.18006 24.5747C8.97438 24.3698 8.8583 24.0917 8.85724 23.8013C8.86716 23.5171 8.98704 23.2478 9.19162 23.0502C9.3962 22.8527 9.6695 22.7422 9.95391 22.7422C10.2383 22.7422 10.5116 22.8527 10.7162 23.0502C10.9208 23.2478 11.0407 23.5171 11.0506 23.8013C11.0506 24.404 10.5572 24.8947 9.95458 24.8947ZM22.1852 9.91333C21.5921 9.91333 21.0231 10.1486 20.6032 10.5675C20.1833 10.9865 19.9467 11.5548 19.9452 12.148C19.9452 12.9027 20.3252 13.5693 20.9026 13.9747L19.8599 16.6173C19.3265 16.5077 18.7715 16.5968 18.2992 16.8679C17.827 17.1391 17.4702 17.5734 17.2959 18.0893L14.9586 17.5587C14.9313 16.9731 14.6749 16.4217 14.2447 16.0235C13.8145 15.6253 13.2449 15.4122 12.659 15.4302C12.073 15.4483 11.5177 15.6959 11.1127 16.1198C10.7078 16.5437 10.4858 17.1098 10.4946 17.696C10.4946 18.272 10.7199 18.7933 11.0786 19.1893L10.0599 21.576C10.0226 21.5747 9.98924 21.5653 9.95325 21.5653C9.36008 21.5653 8.79114 21.8006 8.37121 22.2195C7.95128 22.6385 7.71466 23.2068 7.71324 23.8C7.71324 24.3941 7.94924 24.9638 8.36933 25.3839C8.78941 25.804 9.35916 26.04 9.95325 26.04C10.5473 26.04 11.1171 25.804 11.5372 25.3839C11.9572 24.9638 12.1932 24.3941 12.1932 23.8C12.1932 23.0093 11.7772 22.3173 11.1559 21.92L12.0546 19.8147C12.2692 19.884 12.4946 19.932 12.7319 19.932C13.6132 19.932 14.3692 19.4173 14.7346 18.6787L17.2092 19.2387C17.3187 19.7827 17.6262 20.2668 18.0721 20.597C18.5181 20.9273 19.0707 21.0803 19.623 21.0263C20.1753 20.9724 20.688 20.7153 21.0616 20.305C21.4352 19.8947 21.6432 19.3603 21.6452 18.8053C21.6452 18.1387 21.3466 17.548 20.8799 17.1387L21.9759 14.3613C22.0466 14.368 22.1146 14.3827 22.1852 14.3827C22.7784 14.3827 23.3474 14.1474 23.7673 13.7285C24.1872 13.3095 24.4238 12.7412 24.4252 12.148C24.4238 11.5548 24.1872 10.9865 23.7673 10.5675C23.3474 10.1486 22.7784 9.91333 22.1852 9.91333ZM15.9999 30.86C10.4399 30.86 6.28524 29.1907 6.28524 27.7V6.38667C8.18658 7.91733 12.1746 8.72933 15.9999 8.72933C19.8252 8.72933 23.8132 7.91733 25.7146 6.388V27.6987C25.7146 29.192 21.5599 30.8587 15.9999 30.8587M15.9999 1.14133C21.7239 1.14133 25.7146 2.84 25.7146 4.36667C25.7146 5.89067 21.7239 7.59067 15.9999 7.59067C10.2759 7.59067 6.28524 5.89067 6.28524 4.36667C6.28524 2.83867 10.2759 1.14133 15.9999 1.14133ZM26.8572 4.36533C26.8572 1.52933 21.2626 0 15.9999 0C10.7372 0 5.14258 1.52933 5.14258 4.36533L5.14524 4.37867H5.14258V27.6987C5.14258 30.4933 10.7359 32 15.9999 32C21.2626 32 26.8572 30.4933 26.8572 27.6987V4.37867H26.8546L26.8572 4.36533Z" fill="#222222"/>
</g>
<defs>
<clipPath id="clip0_652_574">
<rect width="32" height="32" fill="white"/>
</clipPath>
</defs>
</svg>
