<svg width="32" height="32" viewBox="0 0 32 32" fill="none" xmlns="http://www.w3.org/2000/svg">
<g id="simple-icons:talend" clip-path="url(#clip0_669_1294)">
<path id="Vector" d="M14.5004 0.033315C13.9537 0.0906483 12.8564 0.286648 12.107 0.465315C11.2364 0.673315 10.6417 0.869315 9.63236 1.30798C5.89264 2.91944 2.91108 5.90052 1.29902 9.63998C0.708357 11 0.48969 11.756 0.160357 13.5547C0.00435677 14.368 -0.000976562 14.5173 -0.000976562 16.0053C-0.000976562 17.4933 0.00435677 17.6427 0.160357 18.456C0.48969 20.2547 0.708357 21.0093 1.29636 22.3707C2.90874 26.1104 5.8908 29.0915 9.63102 30.7027C10.9924 31.2907 11.7484 31.5093 13.547 31.8387C14.3604 31.9947 14.511 32 15.999 32C17.487 32 17.6377 31.9947 18.451 31.8387C20.251 31.5093 21.0057 31.292 22.367 30.7027C26.1067 29.0912 29.0883 26.1101 30.7004 22.3707C31.2897 21.0107 31.5084 20.2547 31.8377 18.456C31.9937 17.6427 31.999 17.4933 31.999 16.0053C31.999 14.5173 31.9937 14.368 31.8377 13.5547C31.5084 11.7547 31.2897 11 30.7017 9.63998C28.9484 5.55732 25.579 2.41998 21.2884 0.863982C20.6844 0.643982 19.6857 0.402648 18.6004 0.199982C17.7404 0.0399817 17.5044 0.021315 16.287 0.00398164C15.543 -0.00668503 14.7364 0.00398164 14.5004 0.033315ZM16.5484 7.15332L16.6924 7.29198V11.104H19.7497L19.847 11.26C20.0324 11.5427 19.927 12.24 19.6684 12.5053C19.5764 12.592 19.4097 12.6026 18.1284 12.6026H16.687L16.7044 17.256C16.7217 21.488 16.7324 21.944 16.8244 22.2093C17.0217 22.8027 17.3097 23.0053 17.9324 22.9987C18.371 22.9987 18.7284 22.9133 19.5644 22.596C20.0724 22.4107 20.1124 22.4053 20.211 22.492C20.3444 22.612 20.5577 23.0573 20.5577 23.2067C20.5577 23.3973 20.095 23.7373 19.323 24.1133C18.0937 24.7053 17.1084 24.9307 16.0297 24.856C14.0044 24.7173 12.8737 24.0373 12.459 22.7C12.343 22.3307 12.339 22.1693 12.3204 17.4587L12.303 12.6026H11.5644C10.7404 12.6026 10.659 12.568 10.6017 12.188C10.555 11.9173 10.735 11.732 11.2137 11.5653C12.499 11.0963 13.6441 10.3085 14.5417 9.27598C15.0137 8.72265 15.1817 8.47465 15.539 7.78798C15.7057 7.47198 15.9017 7.16532 15.9657 7.11332C16.0497 7.04465 16.1567 7.01057 16.2649 7.018C16.3732 7.02543 16.4745 7.07382 16.5484 7.15332Z" fill="#222222"/>
</g>
<defs>
<clipPath id="clip0_669_1294">
<rect width="32" height="32" fill="white"/>
</clipPath>
</defs>
</svg>
