<svg width="33" height="32" viewBox="0 0 33 32" fill="none" xmlns="http://www.w3.org/2000/svg">
<g id="simple-icons:airbyte" clip-path="url(#clip0_652_686)">
<path id="Vector" d="M11.7874 3.88531C15.2114 0.0359786 20.8807 -1.09202 25.542 1.13065C31.734 4.07731 33.994 11.592 30.6207 17.3893L23.038 30.416C22.6114 31.1447 21.9141 31.6752 21.098 31.892C20.28 32.109 19.4095 31.996 18.674 31.5773L27.8567 15.8013C30.3034 11.5946 28.6674 6.14398 24.1794 3.99598C20.8087 2.38531 16.6954 3.19065 14.2034 5.95998C12.8311 7.47651 12.0593 9.4416 12.0327 11.4866C12.0203 12.6859 12.264 13.8739 12.7476 14.9714C13.2311 16.0689 13.9434 17.0505 14.8367 17.8506L9.47535 27.076C9.26602 27.44 8.98868 27.756 8.65268 28.008C8.31969 28.262 7.94007 28.4482 7.53535 28.556C6.71842 28.7715 5.84954 28.6581 5.11535 28.24L10.934 18.2226C10.0977 17.0285 9.49673 15.6859 9.16335 14.2666L5.59668 20.416C5.16976 21.1456 4.47181 21.6769 3.6549 21.8941C2.83799 22.1114 1.96832 21.9971 1.23535 21.576L10.4567 5.71198C10.8434 5.06265 11.286 4.44798 11.7874 3.88531ZM22.4314 8.93065C24.6527 10.2053 25.4207 13.0386 24.134 15.2426L15.2914 30.4133C14.8653 31.143 14.1679 31.6746 13.3514 31.892C12.5342 32.1108 11.6636 31.9972 10.93 31.576L19.142 17.448C18.4825 17.3153 17.8608 17.0374 17.322 16.6346C16.7807 16.2389 16.334 15.7279 16.014 15.1386C15.6917 14.5524 15.5016 13.9028 15.4569 13.2353C15.4122 12.5678 15.5141 11.8986 15.7554 11.2746C15.9975 10.6485 16.373 10.0825 16.8558 9.61605C17.3387 9.14957 17.9172 8.79376 18.5514 8.57331C19.1856 8.34978 19.8607 8.26598 20.5304 8.32766C21.2001 8.38933 21.8486 8.59503 22.4314 8.93065ZM19.2154 11.7826C19.0267 11.9283 18.8765 12.1176 18.7775 12.3344C18.6785 12.5511 18.6339 12.7887 18.6474 13.0266C18.6668 13.3133 18.7708 13.5878 18.9462 13.8154C19.1215 14.043 19.3604 14.2134 19.6327 14.3053C19.9062 14.3976 20.2009 14.4071 20.4799 14.3326C20.7588 14.2581 21.0095 14.103 21.2007 13.8866C21.3905 13.672 21.5119 13.4055 21.5494 13.1215C21.587 12.8374 21.5389 12.5486 21.4114 12.292C21.3048 12.0776 21.1469 11.8929 20.9517 11.7543C20.7566 11.6157 20.5302 11.5274 20.2927 11.4973C20.1032 11.4709 19.9103 11.4825 19.7253 11.5315C19.5403 11.5805 19.367 11.6659 19.2154 11.7826Z" fill="#222222"/>
</g>
<defs>
<clipPath id="clip0_652_686">
<rect width="32" height="32" fill="white" transform="translate(0.709961)"/>
</clipPath>
</defs>
</svg>
