<svg width="33" height="32" viewBox="0 0 33 32" fill="none" xmlns="http://www.w3.org/2000/svg">
<g id="simple-icons:matillion" clip-path="url(#clip0_652_609)">
<path id="Vector" d="M16.7099 0C15.9739 0 15.2379 0.189333 14.5792 0.570667L4.41254 6.44133C3.7657 6.81572 3.22855 7.35344 2.85485 8.00068C2.48116 8.64792 2.28403 9.38196 2.2832 10.1293V21.8707C2.2832 23.392 3.0952 24.7973 4.41254 25.5587L14.5792 31.4293C15.227 31.8026 15.9616 31.999 16.7092 31.999C17.4569 31.999 18.1914 31.8026 18.8392 31.4293L29.0072 25.5587C29.654 25.1843 30.1912 24.6466 30.5649 23.9993C30.9386 23.3521 31.1357 22.618 31.1365 21.8707V10.1293C31.1357 9.38196 30.9386 8.64792 30.5649 8.00068C30.1912 7.35344 29.654 6.81572 29.0072 6.44133L18.8392 0.570667C18.1917 0.197201 17.4574 0.000410046 16.7099 0ZM16.7539 8.28667C17.1029 8.29554 17.4423 8.40334 17.7325 8.59753C18.0227 8.79172 18.2518 9.06432 18.3932 9.38362C18.5345 9.70291 18.5823 10.0558 18.531 10.4012C18.4797 10.7466 18.3313 11.0703 18.1032 11.3347L8.40054 22.5387C8.24208 22.7216 8.04913 22.8716 7.8327 22.98C7.61628 23.0884 7.38063 23.1531 7.1392 23.1705C6.89776 23.1878 6.65528 23.1574 6.42559 23.081C6.19591 23.0047 5.98351 22.8838 5.80054 22.7253C5.431 22.4053 5.20373 21.9516 5.16873 21.464C5.13372 20.9764 5.29384 20.4949 5.61387 20.1253L15.3179 8.92267C15.4949 8.71654 15.7156 8.55248 15.964 8.44246C16.2124 8.33243 16.4823 8.27921 16.7539 8.28667ZM20.3392 12.4267L20.3725 12.428L20.4512 12.4307L20.5605 12.4373L20.6339 12.4467C20.6946 12.4541 20.7547 12.4657 20.8139 12.4813L20.9112 12.5067L20.9579 12.5227L21.0792 12.568L21.1299 12.5907C21.169 12.6084 21.2076 12.6276 21.2459 12.648L21.2899 12.672C21.3254 12.6924 21.3596 12.7138 21.3925 12.736L21.4525 12.7773L21.5472 12.8507L21.5712 12.868L21.5965 12.8933C21.6268 12.92 21.6556 12.9476 21.6832 12.976L21.7325 13.028L21.7739 13.072L27.8179 20.1333C28.0482 20.4005 28.1968 20.7283 28.2461 21.0776C28.2954 21.4269 28.2433 21.783 28.0959 22.1035C27.9485 22.424 27.7121 22.6953 27.4148 22.8852C27.1175 23.0752 26.772 23.1756 26.4192 23.1747C26.1531 23.1748 25.8887 23.1171 25.647 23.0057C25.4053 22.8943 25.1907 22.7318 25.0179 22.5293L20.3725 17.1027L15.7299 22.5293C15.5569 22.7319 15.3421 22.8945 15.1001 23.006C14.8582 23.1174 14.5949 23.1749 14.3285 23.1747C13.9758 23.1756 13.6289 23.0752 13.3316 22.8852C13.0343 22.6953 12.7979 22.424 12.6505 22.1035C12.5031 21.783 12.451 21.4269 12.5003 21.0776C12.5496 20.7283 12.6982 20.4005 12.9285 20.1333L18.9725 13.072L19.0125 13.028L19.0619 12.976L19.1445 12.8973L19.1752 12.868L19.2045 12.8453L19.2925 12.7787L19.3552 12.7347L19.4445 12.6787L19.5099 12.6427L19.6059 12.5947C19.6816 12.558 19.7606 12.5285 19.8419 12.5067C19.9033 12.4866 19.9662 12.471 20.0299 12.46L20.1099 12.4467L20.1872 12.4373L20.2952 12.4307L20.3392 12.4267Z" fill="#222222"/>
</g>
<defs>
<clipPath id="clip0_652_609">
<rect width="32" height="32" fill="white" transform="translate(0.709961)"/>
</clipPath>
</defs>
</svg>
