<svg width="32" height="32" viewBox="0 0 32 32" fill="none" xmlns="http://www.w3.org/2000/svg">
<g id="skill-icons:kubernetes" clip-path="url(#clip0_671_1298)">
<g id="Group">
<path id="Vector" d="M24.5 0H7.5C3.35786 0 0 3.35786 0 7.5V24.5C0 28.6421 3.35786 32 7.5 32H24.5C28.6421 32 32 28.6421 32 24.5V7.5C32 3.35786 28.6421 0 24.5 0Z" fill="#326CE5"/>
<path id="Vector_2" d="M16.0091 3.75C15.8124 3.76366 15.629 3.85405 15.4983 4.00168C15.3676 4.1493 15.3002 4.34236 15.3105 4.53925V4.73987C15.3296 4.967 15.3638 5.192 15.4086 5.41488C15.4741 5.8418 15.4977 6.27411 15.479 6.70563C15.438 6.84785 15.3574 6.97546 15.2465 7.0735L15.2305 7.37437C14.7985 7.41062 14.3698 7.47675 13.9474 7.57275C12.1697 7.9734 10.5524 8.89643 9.30326 10.2233L9.04738 10.042C8.9778 10.0629 8.90478 10.0699 8.8325 10.0626C8.76022 10.0552 8.69009 10.0337 8.62613 9.99925C8.27984 9.74304 7.95937 9.45367 7.66926 9.13525C7.52359 8.96109 7.36796 8.79552 7.20313 8.63937L7.04526 8.5135C6.90456 8.40062 6.73169 8.33528 6.55151 8.32687C6.44394 8.32115 6.33655 8.34096 6.23811 8.38469C6.13967 8.42843 6.05298 8.49484 5.98513 8.5785C5.86952 8.74082 5.82302 8.94237 5.85582 9.13894C5.88863 9.3355 5.99807 9.51102 6.16013 9.627L6.30726 9.74438C6.49667 9.87051 6.69325 9.98554 6.89601 10.0889C7.27633 10.2993 7.63317 10.5496 7.96051 10.8355C8.04512 10.9561 8.09423 11.0979 8.10226 11.245L8.33476 11.4584C7.0796 13.3425 6.56387 15.6235 6.88638 17.8644L6.58763 17.9498C6.51026 18.0737 6.40603 18.1786 6.28263 18.2569C5.86598 18.3682 5.43946 18.4386 5.00913 18.467C4.7808 18.4718 4.55293 18.4896 4.32663 18.5204L4.13776 18.563H4.11651C4.0185 18.5766 3.92437 18.6103 3.8401 18.6622C3.75583 18.714 3.68324 18.7828 3.62694 18.8642C3.57064 18.9456 3.53186 19.0377 3.51304 19.1349C3.49422 19.232 3.49579 19.332 3.51763 19.4285C3.54668 19.5576 3.61109 19.676 3.70363 19.7705C3.79699 19.8645 3.91464 19.9308 4.04346 19.9618C4.17227 19.9929 4.30718 19.9875 4.43313 19.9464H4.44701L4.63901 19.9251C4.85603 19.8603 5.06902 19.7826 5.27688 19.6926C5.67721 19.5317 6.09231 19.4102 6.51626 19.33C6.66298 19.3384 6.80431 19.3882 6.92376 19.4739L7.24376 19.4206C7.93661 21.5717 9.39373 23.3942 11.3395 24.5435L11.2094 24.8155C11.2692 24.9401 11.2914 25.0795 11.2734 25.2165C11.0971 25.6246 10.8817 26.0147 10.6301 26.3813C10.4922 26.5633 10.3647 26.7531 10.2484 26.9498L10.1576 27.1418C10.1085 27.2271 10.0775 27.3217 10.0666 27.4196C10.0557 27.5175 10.0652 27.6166 10.0944 27.7107C10.1237 27.8047 10.172 27.8917 10.2364 27.9663C10.3009 28.0408 10.38 28.1011 10.4689 28.1436C10.5877 28.2005 10.72 28.2233 10.851 28.2095C10.9823 28.1947 11.107 28.1438 11.2111 28.0624C11.3152 27.9811 11.3947 27.8725 11.4409 27.7486L11.5293 27.5674C11.6101 27.3547 11.6785 27.1374 11.7341 26.9167C11.9229 26.4506 12.0254 25.9504 12.2834 25.641C12.3677 25.5617 12.4741 25.5096 12.5885 25.4918L12.7485 25.2005C14.8574 26.0111 17.191 26.0168 19.3039 25.2165L19.4456 25.4885C19.5907 25.5106 19.7211 25.5892 19.8084 25.7071C20.0083 26.0889 20.1711 26.4889 20.2948 26.9018C20.3513 27.1228 20.4203 27.3404 20.5016 27.5535L20.5901 27.7348C20.625 27.827 20.6786 27.911 20.7474 27.9815C20.8163 28.0521 20.8991 28.1076 20.9904 28.1446C21.0818 28.1816 21.1799 28.1994 21.2784 28.1967C21.377 28.194 21.4739 28.1709 21.5631 28.129C21.6825 28.0729 21.784 27.9848 21.8563 27.8745C21.928 27.7636 21.9675 27.6351 21.9705 27.5031C21.9735 27.3711 21.9398 27.2409 21.8733 27.1269L21.7805 26.9349C21.6643 26.7388 21.5368 26.5497 21.3986 26.3685C21.1534 26.0144 20.9421 25.6367 20.7586 25.2411C20.7415 25.1688 20.739 25.0937 20.7515 25.0204C20.764 24.947 20.7911 24.877 20.8313 24.8144C20.7859 24.7213 20.7463 24.6255 20.7128 24.5275C22.6544 23.3696 24.105 21.5408 24.7905 19.3865L25.0934 19.4398C25.2019 19.341 25.3446 19.2883 25.4913 19.2926C25.9146 19.3736 26.3295 19.5059 26.7306 19.6553C26.9378 19.7505 27.1508 19.8324 27.3684 19.9006C27.4196 19.9145 27.4943 19.9261 27.5519 19.94H27.5658C27.6916 19.9808 27.8263 19.9857 27.9549 19.9544C28.0834 19.923 28.2007 19.8565 28.2936 19.7624C28.3868 19.6683 28.4519 19.5502 28.4816 19.4212C28.5116 19.2924 28.505 19.1577 28.4628 19.0324C28.4196 18.9071 28.3425 18.7963 28.2401 18.7123C28.1376 18.6283 28.0138 18.5744 27.8825 18.5566L27.6756 18.5076C27.4493 18.4769 27.2214 18.459 26.993 18.4543C26.5626 18.4266 26.136 18.3562 25.7195 18.2441C25.5907 18.1721 25.4844 18.0658 25.4123 17.937L25.1243 17.8516C25.4314 15.6118 24.9054 13.3371 23.646 11.4595L23.8978 11.227C23.8875 11.0805 23.935 10.9357 24.03 10.8237C24.3573 10.5429 24.7109 10.2943 25.0859 10.0814C25.2885 9.9778 25.4851 9.86278 25.6746 9.73687L25.8304 9.611C25.9161 9.55774 25.9895 9.48696 26.0459 9.40329C26.1023 9.31963 26.1403 9.22499 26.1575 9.12558C26.1747 9.02617 26.1706 8.92425 26.1456 8.82651C26.1206 8.72877 26.0752 8.63744 26.0124 8.5585C25.9495 8.4796 25.8707 8.41491 25.781 8.36867C25.6914 8.32243 25.593 8.2957 25.4922 8.29023C25.3915 8.28476 25.2908 8.30069 25.1967 8.33695C25.1025 8.37321 25.0172 8.42899 24.9461 8.50062L24.7884 8.6265C24.6237 8.78288 24.4681 8.94848 24.3223 9.1225C24.0407 9.44433 23.7289 9.73831 23.391 10.0004C23.2546 10.056 23.1053 10.0722 22.9601 10.0472L22.6903 10.2393C21.1322 8.60636 19.0344 7.59443 16.7866 7.39138C16.7866 7.28475 16.7728 7.12475 16.7706 7.07463C16.6498 6.99158 16.5663 6.86443 16.5381 6.7205C16.5232 6.28972 16.5503 5.85851 16.6191 5.433C16.665 5.20913 16.697 4.98512 16.7173 4.758V4.54462C16.7277 4.3477 16.6603 4.15458 16.5296 4.00692C16.3989 3.85926 16.2154 3.76891 16.0186 3.75537L16.0091 3.75ZM15.1195 9.26L14.9063 12.9858H14.8903C14.8795 13.2161 14.7441 13.4124 14.5361 13.5234C14.3281 13.6342 14.0818 13.6012 13.8961 13.4657L10.8403 11.3005C11.8129 10.3452 13.0331 9.68066 14.3633 9.38175C14.6124 9.32843 14.8641 9.28783 15.1174 9.26013L15.1195 9.26ZM16.8986 9.26C18.5036 9.45978 19.9987 10.1807 21.1544 11.3123L18.1274 13.4636C18.0357 13.5368 17.9253 13.5827 17.8087 13.5963C17.6922 13.6099 17.5742 13.5905 17.4681 13.5404C17.3621 13.4901 17.2723 13.411 17.209 13.3122C17.1456 13.2134 17.1113 13.0988 17.1098 12.9815L16.8986 9.26ZM9.73113 12.702L12.5255 15.1958V15.2118C12.6108 15.2864 12.6742 15.3827 12.7092 15.4905C12.7441 15.5983 12.7492 15.7135 12.7239 15.824C12.6985 15.9343 12.6437 16.0356 12.5654 16.1173C12.4871 16.1989 12.3882 16.2579 12.2791 16.288V16.2986L8.69326 17.33C8.51574 15.7145 8.88121 14.0858 9.73201 12.701L9.73113 12.702ZM22.2669 12.702C23.116 14.0831 23.4912 15.7035 23.3356 17.3172L19.7444 16.2826V16.2687C19.6349 16.2395 19.5355 16.1807 19.4571 16.0989C19.3787 16.0171 19.3242 15.9154 19.2995 15.8048C19.2747 15.6943 19.28 15.5792 19.3149 15.4715C19.3498 15.3638 19.4131 15.2675 19.498 15.1926L22.2711 12.7106L22.2669 12.702ZM15.4363 15.3899H16.5798L17.2784 16.2773L17.0245 17.3866L15.9974 17.8804L14.968 17.3866L14.7259 16.2773L15.4363 15.3899ZM19.099 18.4169C19.1469 18.4116 19.1952 18.4116 19.243 18.4169L22.941 19.0409C22.4076 20.5767 21.3549 21.8888 19.9811 22.7665L18.5519 19.3065C18.5124 19.2137 18.496 19.1128 18.504 19.0123C18.516 18.8606 18.5824 18.7185 18.6909 18.612C18.7995 18.5055 18.9429 18.4419 19.0948 18.4329L19.099 18.4169ZM12.8881 18.4329C12.991 18.4346 13.0919 18.4616 13.1819 18.5115C13.2719 18.5613 13.3483 18.6325 13.4044 18.7188C13.4604 18.8048 13.4943 18.9034 13.503 19.0058C13.5118 19.1081 13.4951 19.211 13.4545 19.3054V19.3193L12.0339 22.7516C10.6742 21.8798 9.64016 20.5837 9.09213 19.0644L12.758 18.4425C12.7988 18.4382 12.84 18.4382 12.8818 18.4425L12.8881 18.4329ZM15.9856 19.9261C16.1021 19.9225 16.2174 19.9513 16.3185 20.0093C16.4196 20.0673 16.5027 20.1522 16.5584 20.2546H16.5723L18.3791 23.5152L17.657 23.7286C16.3275 24.0327 14.9397 23.9611 13.6486 23.5217L15.4619 20.2611C15.5718 20.0691 15.7744 19.9517 15.9953 19.9464L15.9856 19.9261Z" fill="white" stroke="white" stroke-width="0.01375"/>
</g>
</g>
<defs>
<clipPath id="clip0_671_1298">
<rect width="32" height="32" fill="white"/>
</clipPath>
</defs>
</svg>
