<svg width="32" height="32" viewBox="0 0 32 32" fill="none" xmlns="http://www.w3.org/2000/svg">
<g id="tabler:sql">
<path id="Vector" d="M22.6667 10.6667V21.3334H28M17.3333 20L18.6667 21.3334M4 20C4 20.3536 4.14048 20.6928 4.39052 20.9428C4.64057 21.1929 4.97971 21.3334 5.33333 21.3334H8C8.35362 21.3334 8.69276 21.1929 8.94281 20.9428C9.19286 20.6928 9.33333 20.3536 9.33333 20V17.3334C9.33333 16.9797 9.19286 16.6406 8.94281 16.3905C8.69276 16.1405 8.35362 16 8 16H5.33333C4.97971 16 4.64057 15.8595 4.39052 15.6095C4.14048 15.3594 4 15.0203 4 14.6667V12C4 11.6464 4.14048 11.3073 4.39052 11.0572C4.64057 10.8072 4.97971 10.6667 5.33333 10.6667H8C8.35362 10.6667 8.69276 10.8072 8.94281 11.0572C9.19286 11.3073 9.33333 11.6464 9.33333 12M16 10.6667C16.7072 10.6667 17.3855 10.9476 17.8856 11.4477C18.3857 11.9478 18.6667 12.6261 18.6667 13.3334V18.6667C18.6667 19.3739 18.3857 20.0522 17.8856 20.5523C17.3855 21.0524 16.7072 21.3334 16 21.3334C15.2928 21.3334 14.6145 21.0524 14.1144 20.5523C13.6143 20.0522 13.3333 19.3739 13.3333 18.6667V13.3334C13.3333 12.6261 13.6143 11.9478 14.1144 11.4477C14.6145 10.9476 15.2928 10.6667 16 10.6667Z" stroke="#222222" stroke-width="2.66667" stroke-linecap="round" stroke-linejoin="round"/>
</g>
</svg>
