<svg width="80" height="25" viewBox="0 0 80 25" fill="none" xmlns="http://www.w3.org/2000/svg">
<g id="amazon" clip-path="url(#clip0_618_445)">
<g id="Group">
<path id="Path 19" fill-rule="evenodd" clip-rule="evenodd" d="M49.6265 19.402C44.9949 22.8267 38.258 24.6511 32.4475 24.6511C24.3071 24.6511 17.0089 21.6476 11.451 16.6512C11.03 16.2583 11.3949 15.7249 11.9282 16.0336C17.9071 19.5143 25.2896 21.5915 32.9247 21.5915C38.0615 21.5915 43.7316 20.5249 48.9527 18.3072C49.7384 17.9985 50.3843 18.8406 49.6264 19.402H49.6265Z" fill="#A7A7BA"/>
<path id="Path 20" fill-rule="evenodd" clip-rule="evenodd" d="M51.5639 17.1838C50.9746 16.426 47.634 16.8189 46.1464 17.0154C45.6972 17.0715 45.613 16.6786 46.0341 16.3979C48.7008 14.5172 53.0516 15.0785 53.5569 15.6961C54.0621 16.3136 53.4166 20.6923 50.9179 22.7698C50.525 23.0785 50.16 22.9101 50.3286 22.489C50.8902 21.0855 52.1533 17.9696 51.5639 17.1838Z" fill="#A7A7BA"/>
<path id="Path 21" fill-rule="evenodd" clip-rule="evenodd" d="M46.2314 3.20542V1.3804C46.2282 1.32058 46.2376 1.26076 46.2591 1.20482C46.2805 1.14888 46.3135 1.09808 46.3558 1.05572C46.3982 1.01336 46.449 0.980391 46.5049 0.958947C46.5609 0.937503 46.6207 0.928068 46.6805 0.931257H54.8209C54.9434 0.928677 55.0621 0.974288 55.1513 1.05828C55.2406 1.14228 55.2933 1.25794 55.2981 1.3804V2.92427C55.2981 3.1769 55.0736 3.51356 54.6806 4.07519L50.4701 10.0822C52.0421 10.0541 53.6984 10.2787 55.1017 11.0644C55.4104 11.2328 55.4946 11.5135 55.5227 11.7662V13.703C55.5227 13.9837 55.242 14.2923 54.9335 14.124C52.4352 12.8047 49.0948 12.6644 46.344 14.1521C46.0633 14.2924 45.7547 14.0118 45.7547 13.7311V11.8786C45.7547 11.5979 45.7547 11.0929 46.0635 10.6436L50.9477 3.65414H46.7086C46.5861 3.65672 46.4676 3.61117 46.3783 3.52727C46.2891 3.44336 46.2363 3.32781 46.2314 3.20542ZM16.5612 14.5172H14.0911C13.9804 14.5061 13.8764 14.4588 13.7952 14.3827C13.7141 14.3066 13.6602 14.2059 13.6419 14.0962V1.4085C13.6468 1.28605 13.6995 1.1704 13.7887 1.08641C13.8779 1.00242 13.9966 0.956798 14.1191 0.959355H16.4208C16.5347 0.961076 16.6438 1.00517 16.7268 1.08303C16.8099 1.16089 16.8609 1.26692 16.87 1.3804V3.03658H16.9261C17.5154 1.4366 18.6665 0.678714 20.1822 0.678714C21.7261 0.678714 22.7085 1.4366 23.3823 3.03658C23.9716 1.4366 25.3472 0.678714 26.807 0.678714C27.8456 0.678714 28.9684 1.09976 29.6702 2.08226C30.4559 3.14888 30.2878 4.69275 30.2878 6.0682V14.0963C30.2829 14.2187 30.2302 14.3344 30.141 14.4184C30.0518 14.5024 29.9331 14.548 29.8106 14.5454H27.3682C27.1156 14.5173 26.9191 14.3209 26.9191 14.0963V7.35935C26.9191 6.826 26.9752 5.47865 26.863 4.97339C26.6665 4.1313 26.1332 3.87867 25.4033 3.87867C25.081 3.88784 24.7685 3.99105 24.5042 4.17559C24.2398 4.36013 24.0352 4.61794 23.9155 4.91728C23.6629 5.56286 23.691 6.62957 23.691 7.35935V14.0963C23.6862 14.2187 23.6335 14.3344 23.5442 14.4184C23.455 14.5024 23.3364 14.548 23.2139 14.5454H20.7437C20.4911 14.5173 20.2945 14.3209 20.2945 14.0963V7.35935C20.2945 5.95581 20.5191 3.85057 18.7788 3.85057C17.0104 3.85057 17.0665 5.8716 17.0665 7.35935V14.0963C17.0488 14.2163 16.9875 14.3257 16.8943 14.4033C16.8011 14.481 16.6825 14.5216 16.5612 14.5173V14.5172ZM62.3156 0.678714C65.9928 0.678714 67.9858 3.82256 67.9858 7.83659C67.9858 11.7103 65.7964 14.798 62.3156 14.798C58.7226 14.798 56.7577 11.6541 56.7577 7.72429C56.7296 3.76636 58.7226 0.678372 62.3156 0.678372V0.678714ZM62.3156 3.2892C60.491 3.2892 60.3788 5.78747 60.3788 7.33134C60.3788 8.87521 60.3507 12.1875 62.2876 12.1875C64.1964 12.1875 64.3086 9.52078 64.3086 7.89271C64.3086 6.826 64.2525 5.53484 63.9437 4.52425C63.663 3.62596 63.1016 3.2892 62.3156 3.2892ZM72.7296 14.5172H70.2595C70.0068 14.4891 69.8103 14.2927 69.8103 14.0681V1.35213C69.8258 1.23622 69.8826 1.12979 69.9703 1.05243C70.058 0.975065 70.1706 0.931974 70.2876 0.931086H72.5893C72.6937 0.934766 72.794 0.97239 72.8751 1.03825C72.9561 1.10411 73.0135 1.19461 73.0385 1.29602V3.23284H73.0946C73.7963 1.49245 74.7508 0.678458 76.463 0.678458C77.5578 0.678458 78.6525 1.07132 79.3543 2.16621C79.9998 3.17673 79.9998 4.88901 79.9998 6.12414V14.1241C79.9829 14.237 79.9247 14.3396 79.8366 14.4122C79.7485 14.4847 79.6366 14.522 79.5226 14.517H77.0522C76.8277 14.4889 76.6312 14.3205 76.6031 14.1241V7.21903C76.6031 5.81548 76.7715 3.79429 75.0592 3.79429C74.4699 3.79429 73.9084 4.18715 73.6277 4.8048C73.2908 5.59053 73.2348 6.34867 73.2348 7.21886V14.0683C73.2191 14.1916 73.1593 14.3051 73.0664 14.3877C72.9735 14.4702 72.8538 14.5164 72.7296 14.5175L72.7296 14.5172ZM39.7473 8.45416C39.7473 9.40856 39.7754 10.2226 39.2982 11.0932C38.9053 11.7949 38.2877 12.216 37.5859 12.216C36.6315 12.216 36.0701 11.4862 36.0701 10.4195C36.0701 8.31427 37.9508 7.92123 39.7473 7.92123V8.45416ZM42.2456 14.4892C42.1656 14.5591 42.0657 14.602 41.96 14.6121C41.8543 14.6222 41.7481 14.5988 41.6563 14.5453C40.8423 13.8717 40.6741 13.5348 40.2247 12.8892C38.8774 14.2642 37.8949 14.6857 36.1546 14.6857C34.0774 14.6857 32.4493 13.3944 32.4493 10.84C32.4493 8.81901 33.544 7.47166 35.0883 6.7979C36.4357 6.2086 38.3166 6.09613 39.7479 5.92771V5.61897C39.7479 5.02967 39.804 4.32773 39.4392 3.82247C39.1304 3.37333 38.569 3.1769 38.0642 3.1769C37.1098 3.1769 36.2677 3.65405 36.0712 4.66465C36.015 4.88918 35.8747 5.1138 35.6501 5.1138L33.2641 4.86117C33.0677 4.80506 32.8431 4.66474 32.8992 4.35591C33.4606 1.4366 36.0712 0.566406 38.429 0.566406C39.636 0.566406 41.2079 0.875145 42.1623 1.80145C43.3694 2.92427 43.257 4.44046 43.257 6.06811V9.91373C43.257 11.0646 43.7342 11.5699 44.1834 12.2155C44.3518 12.44 44.3798 12.7207 44.1834 12.8611C43.65 13.2821 42.7518 14.0681 42.2465 14.4891L42.2456 14.4892ZM7.32613 8.45416C7.32613 9.40856 7.35423 10.2226 6.87698 11.0932C6.48412 11.7949 5.86647 12.216 5.1647 12.216C4.2103 12.216 3.64893 11.4862 3.64893 10.4195C3.64893 8.31427 5.52963 7.92123 7.32613 7.92123V8.45416ZM9.7963 14.4892C9.7163 14.5591 9.6164 14.602 9.51068 14.6121C9.40496 14.6222 9.29875 14.5988 9.207 14.5453C8.39301 13.8717 8.22485 13.5348 7.77544 12.8892C6.42809 14.2642 5.4456 14.6857 3.7053 14.6857C1.62808 14.6857 0 13.3944 0 10.84C0 8.81901 1.09472 7.47166 2.63902 6.7979C3.98637 6.2086 5.86733 6.09613 7.29863 5.92771V5.61897C7.29863 5.02967 7.35474 4.32773 6.98989 3.82247C6.68115 3.37333 6.1197 3.1769 5.61487 3.1769C4.66047 3.1769 3.81837 3.65405 3.62186 4.66465C3.56575 4.88918 3.42543 5.1138 3.20081 5.1138L0.814849 4.86117C0.618418 4.80506 0.393803 4.66474 0.449914 4.35591C1.01128 1.4366 3.62186 0.566406 5.97972 0.566406C7.18675 0.566406 8.75863 0.875145 9.71303 1.80145C10.9201 2.92427 10.8078 4.44046 10.8078 6.06811V9.91373C10.8078 11.0646 11.2849 11.5699 11.7341 12.2155C11.9025 12.44 11.9305 12.7207 11.7341 12.8611C11.2007 13.2821 10.3025 14.0681 9.79724 14.4891L9.7963 14.4892Z" fill="#A7A7BA"/>
</g>
</g>
<defs>
<clipPath id="clip0_618_445">
<rect width="80" height="24.0842" fill="white" transform="translate(0 0.566406)"/>
</clipPath>
</defs>
</svg>
