<svg width="190" height="28" viewBox="0 0 190 28" fill="none" xmlns="http://www.w3.org/2000/svg">
<g id="microsoft azure" clip-path="url(#clip0_618_440)">
<g id="microsoft azure_2">
<path id="Path 12" d="M0 4.20642L10.8493 2.71494V13.1843H0V4.20642ZM10.8493 14.5243V24.875L0 23.3863V14.5249H10.8499L10.8493 14.5243ZM12.0489 2.55092L26.4858 0.567383V13.1859H12.0494L12.0489 2.55092ZM26.4853 14.5243V27.0226L12.0494 25.0396V14.5243H26.4853Z" fill="#A7A7BA"/>
<g id="Group 1">
<path id="Path 13" d="M50.9948 21.6135H48.487V11.9178C48.487 11.1229 48.5365 10.1508 48.6357 9.00155H48.5936C48.4897 9.48148 48.3512 9.95327 48.1792 10.4132L43.6309 21.6135H41.8879L37.3287 10.4958C37.157 10.0085 37.0221 9.50903 36.9253 9.00155H36.8859C36.9431 9.60077 36.9715 10.5794 36.9712 11.9375V21.6135H34.6328V6.63311H38.1926L42.199 16.6126C42.4327 17.1708 42.6314 17.7431 42.7939 18.326H42.8485C43.1106 17.5388 43.3231 16.9534 43.486 16.5699L47.563 6.63311H50.9954V21.6179L50.9948 21.6135ZM55.7027 8.6664C55.3207 8.67485 54.9499 8.53651 54.6667 8.27987C54.527 8.15756 54.416 8.00595 54.3417 7.83585C54.2673 7.66575 54.2313 7.48133 54.2364 7.29575C54.2322 7.10893 54.2686 6.92343 54.3428 6.75195C54.4171 6.58048 54.5276 6.42711 54.6667 6.30234C54.9473 6.04034 55.3189 5.89797 55.7027 5.90541C56.0949 5.89592 56.4756 6.0381 56.7656 6.30234C56.9064 6.42614 57.0184 6.57917 57.094 6.75075C57.1695 6.92232 57.2067 7.10832 57.203 7.29575C57.204 7.47886 57.1654 7.66002 57.0899 7.82685C57.0144 7.99368 56.9038 8.14224 56.7656 8.26237C56.4777 8.53083 56.0963 8.6762 55.7027 8.6675V8.6664ZM56.9241 21.6135H54.4595V10.914H56.9241V21.6135ZM67.9446 21.1215C66.9963 21.6351 65.9298 21.891 64.8517 21.8634C64.1329 21.8944 63.4153 21.7784 62.7428 21.5224C62.0704 21.2664 61.4572 20.8758 60.941 20.3746C60.4433 19.8662 60.0546 19.2615 59.7988 18.5976C59.543 17.9337 59.4254 17.2246 59.4533 16.5136C59.4031 15.7301 59.5209 14.9448 59.7988 14.2105C60.0768 13.4761 60.5085 12.8097 61.0649 12.2558C61.6214 11.7018 62.2898 11.2732 63.0254 10.9986C63.761 10.724 64.5468 10.6098 65.3301 10.6636C66.2314 10.6456 67.1262 10.8204 67.9544 11.1764V13.4334C67.2597 12.898 66.4089 12.6045 65.5319 12.5974C65.056 12.5814 64.5822 12.6656 64.141 12.8445C63.6998 13.0235 63.3012 13.2932 62.971 13.6362C62.6328 14.0013 62.3703 14.4298 62.1988 14.8969C62.0272 15.3641 61.95 15.8606 61.9716 16.3578C61.9452 16.8358 62.0148 17.3143 62.1762 17.765C62.3376 18.2157 62.5876 18.6295 62.9114 18.9821C63.243 19.3078 63.6383 19.5614 64.0727 19.7269C64.507 19.8924 64.9708 19.9663 65.4351 19.9438C66.353 19.9322 67.2387 19.6038 67.9424 19.0144L67.9446 21.1215ZM76.7109 13.2218C76.3319 12.9683 75.8799 12.8472 75.425 12.8773C75.0642 12.8778 74.709 12.9666 74.3904 13.1359C74.0718 13.3053 73.7995 13.5501 73.5972 13.8489C73.07 14.626 72.8122 15.5546 72.8635 16.4923V21.6135H70.3978V10.914H72.8635V13.119H72.9056C73.1006 12.4384 73.4858 11.8276 74.016 11.3585C74.4784 10.9511 75.0734 10.7263 75.6896 10.7259C76.041 10.7063 76.3918 10.7745 76.7103 10.9244V13.2234L76.7109 13.2218ZM83.2995 21.8634C82.5625 21.899 81.8259 21.7845 81.1345 21.5268C80.443 21.2691 79.8112 20.8736 79.2772 20.3643C78.7689 19.839 78.3733 19.2153 78.1147 18.5316C77.8561 17.848 77.7398 17.1186 77.7732 16.3884C77.7286 15.6164 77.845 14.8435 78.115 14.1188C78.3849 13.3941 78.8025 12.7334 79.3412 12.1786C79.91 11.659 80.5764 11.2574 81.3015 10.9973C82.0267 10.7371 82.7964 10.6235 83.5658 10.6631C84.2943 10.6204 85.0238 10.7296 85.7079 10.9837C86.3921 11.2378 87.0159 11.6313 87.54 12.1392C88.0345 12.6929 88.4146 13.3388 88.6586 14.0399C88.9026 14.741 89.0055 15.4834 88.9615 16.2244C89.0128 16.9804 88.9014 17.7387 88.6347 18.448C88.368 19.1572 87.9522 19.801 87.4154 20.3359C86.8786 20.8707 86.2334 21.2842 85.5231 21.5484C84.8129 21.8126 84.0543 21.9213 83.2984 21.8672L83.2995 21.8634ZM83.416 12.5947C82.9848 12.5753 82.5549 12.6546 82.1591 12.8266C81.7632 12.9986 81.4119 13.2586 81.1317 13.587C80.5325 14.3692 80.2344 15.3408 80.292 16.3245C80.2375 17.2821 80.5405 18.2258 81.1421 18.9728C81.4257 19.2927 81.7769 19.5454 82.1703 19.7126C82.5637 19.8798 82.9894 19.9573 83.4165 19.9395C83.8376 19.9648 84.2588 19.8921 84.6471 19.7273C85.0353 19.5624 85.3801 19.3098 85.6543 18.9892C86.2211 18.205 86.4974 17.248 86.4356 16.2824C86.4977 15.3104 86.2216 14.3469 85.6543 13.5553C85.3812 13.2326 85.0367 12.9779 84.6481 12.8116C84.2595 12.6452 83.8374 12.5717 83.4154 12.5969L83.416 12.5947ZM90.8023 21.2784V19.0346C91.6759 19.7079 92.7485 20.0717 93.8514 20.069C95.3396 20.069 96.0836 19.6371 96.0832 18.7733C96.0898 18.5507 96.0227 18.3322 95.8924 18.1516C95.7513 17.9684 95.576 17.8143 95.3763 17.6979C95.1337 17.554 94.8773 17.4349 94.6109 17.3425C94.3164 17.2375 93.9883 17.119 93.6267 16.9871C93.2134 16.8283 92.8105 16.6433 92.4207 16.4333C92.091 16.2593 91.7901 16.0356 91.5284 15.7701C91.2945 15.5288 91.112 15.2426 90.992 14.9287C90.8649 14.5771 90.8038 14.2051 90.8116 13.8314C90.8021 13.3505 90.9314 12.8771 91.1839 12.4678C91.4389 12.067 91.7799 11.728 92.1823 11.4755C92.6205 11.1986 93.1005 10.994 93.6038 10.8697C94.142 10.7329 94.6952 10.6644 95.2505 10.6658C96.1698 10.6512 97.0841 10.8032 97.9492 11.1147V13.236C97.1699 12.716 96.2506 12.4461 95.3139 12.4624C95.0297 12.4597 94.7461 12.4911 94.4693 12.5558C94.2423 12.6084 94.0251 12.6966 93.8257 12.8172C93.6592 12.9183 93.5175 13.0556 93.4113 13.219C93.3129 13.3733 93.2612 13.5527 93.2626 13.7357C93.2562 13.941 93.3078 14.1439 93.4113 14.3212C93.5239 14.4943 93.6749 14.6392 93.8525 14.7444C94.0743 14.8796 94.3093 14.9915 94.554 15.0785C94.8274 15.1796 95.1401 15.2895 95.4949 15.4065C95.9234 15.5771 96.3431 15.7691 96.7524 15.9817C97.0985 16.1582 97.4187 16.3814 97.7043 16.6449C97.9624 16.8863 98.1684 17.178 98.3095 17.5021C98.4593 17.8682 98.5317 18.2614 98.5222 18.6568C98.5342 19.1576 98.4013 19.6512 98.1395 20.0783C97.8807 20.4861 97.5319 20.8291 97.1198 21.081C96.6653 21.3578 96.1679 21.5572 95.648 21.6709C95.0711 21.8025 94.4809 21.8675 93.8892 21.8645C92.8285 21.8911 91.7744 21.6923 90.7963 21.2811L90.8023 21.2784ZM105.701 21.8629C104.964 21.8986 104.227 21.7841 103.535 21.5264C102.844 21.2687 102.212 20.8731 101.678 20.3637C101.17 19.8383 100.774 19.2147 100.516 18.531C100.257 17.8473 100.141 17.118 100.175 16.3879C100.13 15.6158 100.247 14.843 100.517 14.1183C100.787 13.3936 101.204 12.7329 101.743 12.1781C102.312 11.6584 102.978 11.2569 103.703 10.9967C104.428 10.7366 105.197 10.623 105.966 10.6625C106.695 10.6199 107.424 10.7291 108.109 10.9832C108.793 11.2373 109.417 11.6308 109.941 12.1387C110.435 12.6923 110.815 13.3383 111.059 14.0394C111.303 14.7404 111.406 15.4829 111.362 16.2239C111.414 16.98 111.302 17.7383 111.036 18.4476C110.769 19.157 110.353 19.8009 109.816 20.3358C109.279 20.8707 108.634 21.2841 107.924 21.5482C107.213 21.8123 106.454 21.9209 105.699 21.8667L105.701 21.8629ZM105.817 12.5941C105.386 12.5748 104.956 12.6542 104.56 12.8262C104.164 12.9981 103.812 13.2581 103.532 13.5864C102.933 14.3686 102.635 15.3402 102.692 16.3239C102.638 17.2815 102.941 18.2252 103.542 18.9723C103.826 19.2922 104.177 19.545 104.571 19.7122C104.964 19.8794 105.39 19.9568 105.817 19.9389C106.238 19.9637 106.659 19.8909 107.047 19.7261C107.434 19.5614 107.779 19.3092 108.053 18.9892C108.621 18.2053 108.897 17.2481 108.835 16.2824C108.897 15.3104 108.621 14.3469 108.053 13.5553C107.781 13.2328 107.436 12.9783 107.048 12.812C106.66 12.6456 106.238 12.572 105.817 12.5969L105.817 12.5941ZM120.035 7.74571C119.688 7.55387 119.296 7.4566 118.898 7.4636C117.701 7.4636 117.102 8.12879 117.103 9.45916V10.9118H119.632V12.8166H117.113V21.6135H114.647V12.8166H112.789V10.9151H114.647V9.18033C114.623 8.67941 114.712 8.17948 114.907 7.71741C115.102 7.25535 115.398 6.84295 115.774 6.51064C116.559 5.84666 117.562 5.49824 118.59 5.53309C119.079 5.51524 119.568 5.58239 120.034 5.73155V7.74844L120.035 7.74571ZM127.143 21.4971C126.544 21.7574 125.893 21.8789 125.24 21.8525C123.13 21.8525 122.074 20.8565 122.074 18.8646V12.8177H120.257V10.9162H122.074V8.43732L124.54 7.7479V10.914H127.144V12.8155H124.54V18.1691C124.496 18.6488 124.62 19.1288 124.89 19.5272C125.044 19.676 125.228 19.7895 125.43 19.8599C125.632 19.9302 125.847 19.9557 126.059 19.9345C126.45 19.9437 126.833 19.8182 127.142 19.5792L127.143 21.4971ZM148.056 21.6119H145.283L143.912 17.7974H137.922L136.604 21.6119H133.841L139.546 6.63311H142.393L148.057 21.6135L148.056 21.6119ZM143.245 15.7706L141.131 9.79322C141.042 9.48484 140.975 9.17062 140.929 8.85284H140.887C140.842 9.1715 140.771 9.48597 140.675 9.79322L138.578 15.7739H143.241L143.245 15.7706ZM157.92 11.9249L152.042 19.7229H157.897V21.6135H148.587V20.7054L154.592 12.8057H149.162V10.914H157.918V11.9282L157.92 11.9249ZM169.49 21.6135H167.025V19.9187H166.983C166.673 20.5292 166.194 21.0374 165.602 21.3821C165.011 21.7269 164.332 21.8936 163.648 21.8623C161.076 21.8623 159.791 20.3435 159.791 17.3058V10.914H162.256V17.0587C162.256 18.9818 163.011 19.9431 164.52 19.9427C164.86 19.9516 165.198 19.885 165.51 19.7478C165.821 19.6105 166.098 19.406 166.321 19.1489C166.81 18.5701 167.063 17.8282 167.028 17.0713V10.914H169.494L169.49 21.6135ZM179.022 13.2223C178.643 12.9688 178.191 12.8478 177.736 12.8779C177.376 12.8783 177.02 12.9671 176.702 13.1365C176.383 13.3058 176.111 13.5506 175.909 13.8494C175.381 14.6266 175.124 15.5552 175.175 16.4929V21.6135H172.71V10.914H175.175V13.119H175.217C175.412 12.4384 175.797 11.8276 176.327 11.3585C176.79 10.9511 177.385 10.7263 178.001 10.7259C178.352 10.7062 178.703 10.7745 179.021 10.9244V13.2234L179.022 13.2223ZM190 16.9215H182.582C182.569 17.3467 182.645 17.7698 182.805 18.1639C182.965 18.558 183.205 18.9144 183.511 19.2101C184.193 19.7776 185.064 20.0651 185.95 20.0144C187.097 20.0189 188.217 19.6604 189.148 18.9903V20.9438C187.948 21.609 186.587 21.9276 185.216 21.8639C184.521 21.9019 183.825 21.7916 183.176 21.5402C182.526 21.2888 181.938 20.9021 181.449 20.4058C180.538 19.4337 180.082 18.0669 180.082 16.3053C180.052 15.5611 180.17 14.8183 180.428 14.1197C180.686 13.4211 181.08 12.7805 181.587 12.2349C182.064 11.7245 182.643 11.3206 183.287 11.0496C183.931 10.7786 184.625 10.6467 185.323 10.6625C185.967 10.6249 186.612 10.732 187.209 10.976C187.807 11.22 188.342 11.5947 188.776 12.0725C189.648 13.1856 190.083 14.5794 189.998 15.991V16.9204L190 16.9215ZM187.62 15.2091C187.656 14.479 187.434 13.7594 186.993 13.1769C186.783 12.935 186.52 12.7439 186.226 12.6182C185.931 12.4925 185.612 12.4355 185.292 12.4514C184.955 12.4461 184.62 12.5115 184.31 12.6434C184 12.7752 183.721 12.9706 183.491 13.2168C182.98 13.7659 182.661 14.4663 182.582 15.2124H187.62V15.2091Z" fill="#A7A7BA"/>
</g>
</g>
</g>
<defs>
<clipPath id="clip0_618_440">
<rect width="190" height="26.4569" fill="white" transform="translate(0 0.56543)"/>
</clipPath>
</defs>
</svg>
