<svg width="130" height="46" viewBox="0 0 130 46" fill="none" xmlns="http://www.w3.org/2000/svg">
<g id="shield-horz-white 1" clip-path="url(#clip0_618_450)">
<g id="name">
<path id="Vector" d="M47.7616 5.72266V13.2824C47.7616 15.8259 48.8213 17.027 50.4463 17.027C52.142 17.027 53.1311 15.8259 53.1311 13.2824V5.72266H55.5333V13.1411C55.5333 17.1683 53.4844 18.9346 50.305 18.9346C47.3376 18.9346 45.3594 17.239 45.3594 13.1411V5.72266H47.7616Z" fill="#A7A7BA"/>
<path id="Vector_2" d="M58.0765 12.0807C58.0765 11.0209 58.0059 10.1024 58.0059 9.32524H60.1254L60.2667 10.7383H60.3374C60.7613 10.0318 61.7504 9.11328 63.3048 9.11328C64.9298 9.11328 66.6254 10.1731 66.6254 13.1405V18.6513H64.2939V13.3524C64.2939 12.01 63.7993 10.9502 62.4569 10.9502C61.4678 10.9502 60.9026 11.6568 60.62 12.3633C60.5493 12.5046 60.4787 12.8578 60.4787 13.0698V18.5807H58.0765V12.0807Z" fill="#A7A7BA"/>
<path id="Vector_3" d="M69.0987 18.7224V9.3257H71.5008V18.7224H69.0987ZM70.2291 7.84201C69.3813 7.84201 68.8867 7.20614 68.8867 6.49962C68.8867 5.7931 69.4519 5.15723 70.2998 5.15723C71.1476 5.15723 71.7128 5.72244 71.7128 6.49962C71.6422 7.27679 71.1476 7.84201 70.2291 7.84201Z" fill="#A7A7BA"/>
<path id="Vector_4" d="M75.5279 9.32617L77.0822 14.0599C77.3648 14.9077 77.5061 15.6142 77.7181 16.3914H77.7887C77.93 15.6142 78.2126 14.837 78.4246 14.0599L79.9083 9.32617H82.3811L78.8485 18.7229H76.517L72.9844 9.32617H75.5279Z" fill="#A7A7BA"/>
<path id="Vector_5" d="M85.2065 12.9995C85.3478 12.0104 85.913 10.7386 87.3261 10.7386C88.8804 10.7386 89.3043 12.1517 89.3043 12.9995H85.2065ZM91.4239 14.6245C91.4946 14.4125 91.4946 14.0593 91.4946 13.6354C91.4946 11.5864 90.5054 9.04297 87.4674 9.04297C84.5 9.04297 82.875 11.4451 82.875 14.0593C82.875 16.956 84.712 18.793 87.6793 18.793C89.0217 18.793 90.1522 18.5104 90.9293 18.1571L90.5761 16.5321C89.8696 16.8147 89.0924 16.956 87.962 16.956C86.4076 16.956 85.1359 16.2495 85.0652 14.5538L91.4239 14.6245Z" fill="#A7A7BA"/>
<path id="Vector_6" d="M93.4027 12.2926C93.4027 11.0209 93.4027 10.1024 93.332 9.32524H95.3809L95.5222 11.0915H95.5929C96.0168 9.8198 97.1472 9.11328 98.1364 9.11328C98.3483 9.11328 98.4896 9.11328 98.7016 9.18393V11.3742C98.4896 11.3035 98.2777 11.3035 97.9951 11.3035C96.8646 11.3035 96.0875 12.01 95.8755 13.1405C95.8049 13.3524 95.8049 13.5644 95.8049 13.847V18.722H93.4027V12.2926Z" fill="#A7A7BA"/>
<path id="Vector_7" d="M100.186 16.5324C100.68 16.8857 101.74 17.2389 102.588 17.2389C103.577 17.2389 104.142 16.815 104.142 16.1791C104.142 15.5433 103.718 15.19 102.588 14.8367C100.751 14.2009 99.9737 13.2117 99.9737 12.152C99.9737 10.527 101.316 9.18457 103.506 9.18457C104.495 9.18457 105.414 9.46718 105.979 9.74979L105.555 11.3748C105.131 11.1628 104.425 10.8096 103.577 10.8096C102.729 10.8096 102.305 11.2335 102.305 11.7987C102.305 12.3639 102.729 12.7172 103.93 13.0704C105.626 13.7063 106.403 14.5541 106.403 15.8965C106.403 17.5922 105.061 18.8639 102.588 18.8639C101.457 18.8639 100.468 18.5813 99.7617 18.1574L100.186 16.5324Z" fill="#A7A7BA"/>
<path id="Vector_8" d="M108.309 18.7224V9.3257H110.711V18.7224H108.309ZM109.51 7.84201C108.663 7.84201 108.168 7.20614 108.168 6.49962C108.168 5.7931 108.733 5.15723 109.581 5.15723C110.429 5.15723 110.994 5.72244 110.994 6.49962C110.923 7.27679 110.358 7.84201 109.51 7.84201Z" fill="#A7A7BA"/>
<path id="Vector_9" d="M116.293 6.92383V9.326H118.554V11.0923H116.293V15.1901C116.293 16.3206 116.575 16.9564 117.494 16.9564C117.918 16.9564 118.2 16.8858 118.412 16.8151L118.483 18.6521C118.13 18.7934 117.494 18.864 116.787 18.864C115.939 18.864 115.233 18.5814 114.738 18.0869C114.244 17.5217 114.032 16.6738 114.032 15.4727V11.0923H112.689V9.326H114.032V7.5597L116.293 6.92383Z" fill="#A7A7BA"/>
<path id="Vector_10" d="M122.37 9.32617L124.066 14.3425C124.207 14.9077 124.49 15.6142 124.561 16.1794H124.631C124.773 15.6849 124.984 14.9077 125.126 14.3425L126.609 9.32617H129.153L126.751 15.6849C125.479 19.2175 124.631 20.7012 123.501 21.761C122.582 22.5381 121.593 22.8914 121.028 22.962L120.533 20.9838C120.957 20.8425 121.452 20.6305 121.876 20.3479C122.3 20.0653 122.865 19.5001 123.148 18.8642C123.289 18.7229 123.289 18.5816 123.289 18.4403C123.289 18.299 123.289 18.2283 123.148 18.0164L119.686 9.39682H122.3V9.32617H122.37Z" fill="#A7A7BA"/>
<path id="Vector_11" d="M49.386 35.8913C47.973 35.8913 47.0545 34.5489 47.0545 32.7119C47.0545 31.1576 47.761 29.5326 49.386 29.5326C51.011 29.5326 51.6469 31.2282 51.6469 32.7119C51.7882 34.5489 50.7991 35.8913 49.386 35.8913ZM49.386 37.5869C51.7882 37.5869 54.1904 36.0326 54.1904 32.6413C54.1904 29.8152 52.3534 27.8369 49.5273 27.8369C46.7013 27.8369 44.6523 29.6739 44.6523 32.7826C44.723 35.75 46.7719 37.5869 49.386 37.5869Z" fill="#A7A7BA"/>
<path id="Vector_12" d="M56.3811 37.3745V29.8147H55.1094V28.0484H56.3811V27.6245C56.3811 26.4234 56.7344 25.2224 57.5115 24.3745C58.2181 23.668 59.1366 23.4561 59.9137 23.4561C60.5496 23.4561 61.0442 23.5974 61.4681 23.668L61.3268 25.505C61.0442 25.3637 60.7615 25.3637 60.3376 25.3637C59.1365 25.3637 58.7833 26.3528 58.7833 27.4832V27.9778H60.7615V29.7441H58.7833V37.4452L56.3811 37.3745Z" fill="#A7A7BA"/>
<path id="Vector_13" d="M69.4517 37.3747L65.2832 24.4453H67.8973L69.6636 30.3094C70.1582 31.9344 70.5821 33.4888 70.9354 35.0431H71.006C71.3593 33.4888 71.7832 31.9344 72.2778 30.3801L74.1854 24.4453H76.7289L72.2778 37.3747H69.4517Z" fill="#A7A7BA"/>
<path id="Vector_14" d="M78.1416 37.3744V28.0484H80.5438V37.4451L78.1416 37.3744ZM79.2721 26.5647C78.4242 26.5647 77.9297 25.9288 77.9297 25.2223C77.9297 24.5158 78.4949 23.8799 79.3427 23.8799C80.1906 23.8799 80.6851 24.4451 80.7558 25.2223C80.6851 25.9288 80.1199 26.5647 79.2721 26.5647Z" fill="#A7A7BA"/>
<path id="Vector_15" d="M89.87 37.0923C89.3754 37.3043 88.3863 37.5869 87.1852 37.5869C84.2178 37.5869 82.3809 35.75 82.3809 32.7826C82.3809 29.9565 84.2885 27.8369 87.6091 27.8369C88.4569 27.8369 89.3754 27.9782 89.87 28.2608L89.4461 30.0978C89.0222 29.9565 88.4569 29.6739 87.6091 29.6739C85.7722 29.6739 84.7124 30.9456 84.7124 32.7119C84.7124 34.6195 85.9841 35.6793 87.6091 35.6793C88.3863 35.6793 89.0222 35.538 89.4461 35.2554L89.87 37.0923Z" fill="#A7A7BA"/>
<path id="Vector_16" d="M94.6029 25.5762V27.9783H96.8638V29.7446H94.6029V33.9131C94.6029 35.0436 94.8855 35.6794 95.804 35.6794C96.2279 35.6794 96.5105 35.6088 96.7225 35.5381L96.7931 37.3751C96.4399 37.5164 95.804 37.587 95.0975 37.587C94.2497 37.587 93.5431 37.3044 93.0486 36.8099C92.554 36.2446 92.3421 35.3968 92.3421 34.1957V29.8153H91.0703V28.049H92.4127V26.2827L94.6029 25.5762Z" fill="#A7A7BA"/>
<path id="Vector_17" d="M102.728 35.8913C101.315 35.8913 100.396 34.5489 100.396 32.7119C100.396 31.1576 101.103 29.5326 102.728 29.5326C104.353 29.5326 104.989 31.2282 104.989 32.7119C104.989 34.5489 104.141 35.8913 102.728 35.8913ZM102.728 37.5869C105.13 37.5869 107.532 36.0326 107.532 32.6413C107.532 29.8152 105.695 27.8369 102.869 27.8369C100.043 27.8369 97.9941 29.6739 97.9941 32.7826C97.9941 35.75 100.043 37.5869 102.728 37.5869Z" fill="#A7A7BA"/>
<path id="Vector_18" d="M109.44 31.0159C109.44 29.7442 109.44 28.8257 109.369 28.0485H111.418L111.559 29.8855H111.63C112.054 28.6137 113.184 27.9072 114.173 27.9072C114.385 27.9072 114.527 27.9072 114.739 27.9779V30.1681C114.527 30.0974 114.315 30.0974 114.032 30.0974C112.902 30.0974 112.125 30.804 111.913 31.9344C111.842 32.1464 111.842 32.3583 111.842 32.6409V37.4453H109.44V31.0159Z" fill="#A7A7BA"/>
<path id="Vector_19" d="M116.294 37.3744V28.0484H118.696V37.4451L116.294 37.3744ZM117.424 26.5647C116.577 26.5647 116.082 25.9288 116.082 25.2223C116.082 24.5158 116.647 23.8799 117.495 23.8799C118.343 23.8799 118.908 24.4451 118.908 25.2223C118.837 25.9288 118.343 26.5647 117.424 26.5647Z" fill="#A7A7BA"/>
<path id="Vector_20" d="M126.185 34.0543C126.185 34.1956 126.185 34.4076 126.114 34.5489C125.902 35.2554 125.196 35.8206 124.277 35.8206C123.571 35.8206 122.935 35.3967 122.935 34.4782C122.935 33.0652 124.489 32.7119 126.185 32.7119V34.0543ZM128.446 31.7934C128.446 29.7445 127.598 27.8369 124.631 27.8369C123.147 27.8369 121.946 28.2608 121.239 28.6847L121.663 30.2391C122.299 29.8152 123.218 29.5326 124.207 29.5326C125.832 29.5326 126.114 30.5217 126.114 31.1576V31.2989C122.652 31.2989 120.604 32.5 120.604 34.8315C120.604 36.2445 121.663 37.5869 123.571 37.5869C124.772 37.5869 125.761 37.0923 126.326 36.3152H126.397L126.538 37.3043H128.658C128.517 36.7391 128.517 35.8913 128.517 35.0434L128.446 31.7934Z" fill="#A7A7BA"/>
</g>
<g id="sheild">
<path id="Vector_21" d="M35.3261 14.8369V24.0923C35.3261 36.1739 24.6576 44.2282 18.087 44.2282C11.5163 44.2282 0.847826 36.1739 0.847826 24.0923V14.8369H0V24.0217C0 36.7391 11.2337 45.2174 18.087 45.2174C24.9402 45.2174 36.1739 36.8097 36.1739 24.0217V14.8369H35.3261Z" fill="#A7A7BA"/>
<path id="Vector_22" d="M26.2126 41.4023H10.0332V42.2502H26.2126V41.4023Z" fill="#A7A7BA"/>
<path id="Vector_23" d="M26.2126 37.1631H10.0332V38.0109H26.2126V37.1631Z" fill="#A7A7BA"/>
<path id="Vector_24" d="M30.5929 37.1631H5.58203V38.0109H30.5929V37.1631Z" fill="#A7A7BA"/>
<path id="Vector_25" d="M4.9454 28.5439H1.27148V29.3918H5.01605L4.9454 28.5439Z" fill="#A7A7BA"/>
<path id="Vector_26" d="M31.6527 28.5439L31.582 29.3918H34.9733V28.5439H31.6527Z" fill="#A7A7BA"/>
<path id="Vector_27" d="M31.793 24.2334V25.0812H35.4669V24.2334H31.793Z" fill="#A7A7BA"/>
<path id="Vector_28" d="M4.73387 24.2334H0.777344V25.0812H4.80452L4.73387 24.2334Z" fill="#A7A7BA"/>
<path id="Vector_29" d="M7.13638 19.9238H0.707031V20.7717H6.2179L7.13638 19.9238Z" fill="#A7A7BA"/>
<path id="Vector_30" d="M29.25 19.9238L30.1685 20.7717H35.4674V19.9238H29.25Z" fill="#A7A7BA"/>
<path id="Vector_31" d="M31.4398 32.8535L31.3691 33.7013H33.4181V32.8535H31.4398Z" fill="#A7A7BA"/>
<path id="Vector_32" d="M5.15803 32.8535H2.75586V33.7013H5.22869L5.15803 32.8535Z" fill="#A7A7BA"/>
<path id="Vector_33" d="M20.6298 35.0436C19.5701 34.5491 18.7929 33.9839 18.2983 33.2773C17.8744 33.9839 17.0266 34.5491 15.9668 35.0436C16.3201 35.6795 17.0972 36.0328 18.2983 36.0328C19.4994 36.0328 20.2059 35.6795 20.6298 35.0436Z" fill="#A7A7BA"/>
<path id="Vector_34" d="M30.6623 34.7606C29.1786 34.9726 21.3362 35.9617 19.0753 33.2063C18.6514 32.641 18.4395 31.9345 18.4395 31.9345C18.4395 31.9345 18.6514 31.5106 19.0753 31.2987C19.8525 30.8041 21.6188 30.3095 24.7275 32.3584C24.7981 32.4291 26.7764 33.8421 28.7547 32.9943L28.896 32.853L29.1079 20.7715C29.5318 21.266 30.2384 21.9019 31.1568 22.3258C31.2275 22.7497 30.6623 34.266 30.6623 34.7606Z" fill="#A7A7BA"/>
<path id="Vector_35" d="M17.5213 33.2063C15.2604 35.9617 7.48871 34.9726 6.00501 34.7606C6.00501 34.266 5.43979 22.7497 5.36914 22.3258C6.28762 21.9019 6.92349 21.266 7.41805 20.7715L7.63001 32.853L7.77131 32.9943C9.74958 33.9128 11.7278 32.4291 11.7985 32.3584C14.9072 30.2389 16.6028 30.8041 17.4507 31.2987C17.8746 31.5106 18.0865 31.9345 18.0865 31.9345C18.0865 31.9345 17.9452 32.641 17.5213 33.2063Z" fill="#A7A7BA"/>
<path id="Vector_36" d="M24.3045 19.4996C24.5165 19.6409 26.3534 21.1246 28.5436 20.3474C28.473 22.6083 28.3317 32.0757 28.3317 32.4289C26.7773 32.9942 25.1523 31.8637 25.1523 31.7931C21.6197 29.3909 19.6415 30.1681 18.6523 30.8039V19.6409C19.0763 19.2876 20.8426 17.38 24.3045 19.4996Z" fill="#A7A7BA"/>
<path id="Vector_37" d="M12.2935 19.5003C15.8261 17.3101 17.663 19.359 18.0163 19.7829V30.8753C17.0978 30.1688 15.0489 29.4623 11.5163 31.8644C11.5163 31.8644 9.8913 32.9949 8.33696 32.5003C8.33696 32.0764 8.19565 22.609 8.125 20.4188C10.2446 21.1253 12.0815 19.6416 12.2935 19.5003Z" fill="#A7A7BA"/>
<path id="Vector_38" d="M0 0V15.9674H36.2446V0H0ZM11.7283 12.1522C11.8696 13 11.8696 13.9891 11.8696 14.3424C11.0924 13.212 9.32609 11.4457 8.61957 11.0924C8.54891 12.1522 8.97283 13.6359 9.32609 14.0598C8.33696 13.8478 7.84239 13.4946 7.48913 13C7.20652 13.3533 6.42935 14.0598 5.65217 13.8478C6.07609 12.8587 6.3587 11.8696 6.3587 10.5978C5.51087 10.4565 4.02717 9.6087 4.02717 6.57065C4.02717 5.29891 3.17935 5.0163 2.75543 4.52174C3.46196 4.09783 4.30978 3.32065 4.875 3.32065C5.58152 3.32065 6.6413 3.53261 6.71196 5.65217C7.13587 6.21739 7.70109 6.71196 8.40761 7.06522C9.67935 7.27717 11.0924 7.27717 12.5054 7.20652C12.3641 7.63043 10.8804 8.69022 10.8804 8.69022C11.587 9.18478 13.2826 9.53804 13.2826 9.53804C13.2826 9.53804 12.1522 10.0326 11.0924 10.0326C7.48913 10.1033 6.00543 8.76087 5.86413 7.9837C5.79348 7.55978 6.07609 7.27717 6.57065 7.13587C6.92391 7.06522 6.71196 6.5 6.3587 6.57065C5.51087 6.71196 5.08696 7.27717 5.15761 8.05435C5.29891 9.25543 7.20652 10.7391 11.375 10.5978C12.3641 10.8804 12.9293 10.8804 13.5652 10.8098C12.8587 11.6576 12.2935 12.0109 11.7283 12.1522ZM22.0435 12.1522C22.1848 13 22.1848 13.9891 22.1848 14.3424C21.4076 13.212 19.6413 11.4457 18.9348 11.0924C18.8641 12.1522 19.288 13.6359 19.6413 14.0598C18.6522 13.8478 18.1576 13.4946 17.8043 13C17.5217 13.3533 16.7446 14.0598 15.9674 13.8478C16.462 12.8587 16.8152 11.8696 16.7446 10.5978C15.8967 10.4565 14.413 9.6087 14.413 6.57065C14.413 5.29891 13.5652 5.0163 13.1413 4.52174C13.8478 4.09783 14.6957 3.32065 15.2609 3.32065C15.9674 3.32065 17.0272 3.53261 17.0978 5.65217C17.5217 6.21739 18.087 6.71196 18.7935 7.06522C20.0652 7.27717 21.4783 7.27717 22.8913 7.20652C22.75 7.63043 21.2663 8.69022 21.2663 8.69022C21.9728 9.18478 23.6685 9.53804 23.6685 9.53804C23.6685 9.53804 22.538 10.0326 21.4783 10.0326C17.875 10.1033 16.3913 8.76087 16.25 7.9837C16.1793 7.55978 16.462 7.27717 16.9565 7.13587C17.3804 7.06522 17.1685 6.5 16.8152 6.57065C15.9674 6.71196 15.5435 7.27717 15.6141 8.05435C15.7554 9.25543 17.663 10.7391 21.8315 10.5978C22.8207 10.8804 23.3859 10.8804 24.0217 10.8098C23.2446 11.6576 22.6087 12.0109 22.0435 12.1522ZM32.3587 12.1522C32.5 13 32.5 13.9891 32.5 14.3424C31.7228 13.212 29.9565 11.4457 29.25 11.0924C29.1793 12.1522 29.6033 13.6359 29.9565 14.0598C28.9674 13.8478 28.4728 13.4946 28.1196 13C27.837 13.3533 27.0598 14.0598 26.2826 13.8478C26.7772 12.8587 27.1304 11.8696 27.0598 10.5978C26.1413 10.3859 24.7283 9.53804 24.7283 6.57065C24.7283 5.29891 23.8804 5.0163 23.4565 4.52174C24.163 4.09783 24.9402 3.32065 25.5761 3.32065C26.2826 3.32065 27.3424 3.53261 27.413 5.65217C27.837 6.21739 28.4022 6.71196 29.1087 7.06522C30.3804 7.27717 31.7935 7.27717 33.2065 7.20652C33.0652 7.63043 31.5815 8.69022 31.5815 8.69022C32.288 9.18478 33.9837 9.53804 33.9837 9.53804C33.9837 9.53804 32.8533 10.0326 31.7935 10.0326C28.1902 10.1033 26.7065 8.76087 26.5652 7.9837C26.4946 7.55978 26.7772 7.27717 27.2717 7.13587C27.6957 7.06522 27.4837 6.5 27.1304 6.57065C26.2826 6.71196 25.8587 7.27717 25.9293 8.05435C26.0707 9.25543 27.9783 10.7391 32.1467 10.5978C33.1359 10.8804 33.7011 10.8804 34.337 10.8098C33.5598 11.6576 32.9239 12.0109 32.3587 12.1522Z" fill="#A7A7BA"/>
<path id="Vector_39" d="M4.09766 4.52187C4.16831 4.45121 4.30961 4.23926 4.59222 4.23926C4.94548 4.23926 4.94548 4.45121 5.22809 4.45121C5.08679 4.52187 5.08679 4.80448 4.59222 4.80448C4.30961 4.80448 4.23896 4.59252 4.09766 4.52187Z" fill="#A7A7BA"/>
<path id="Vector_40" d="M14.4844 4.52187C14.555 4.45121 14.6257 4.23926 14.9083 4.23926C15.2615 4.23926 15.3322 4.45121 15.5442 4.45121C15.4029 4.52187 15.4029 4.80448 14.9789 4.80448C14.6257 4.80448 14.555 4.59252 14.4844 4.52187Z" fill="#A7A7BA"/>
<path id="Vector_41" d="M24.7988 4.52187C24.8695 4.45121 25.0108 4.23926 25.2227 4.23926C25.576 4.23926 25.6467 4.45121 25.8586 4.45121C25.7173 4.52187 25.7173 4.80448 25.2934 4.80448C24.9401 4.80448 24.8695 4.59252 24.7988 4.52187Z" fill="#A7A7BA"/>
</g>
</g>
<defs>
<clipPath id="clip0_618_450">
<rect width="130" height="45.2174" fill="white"/>
</clipPath>
</defs>
</svg>
