<svg width="450" height="450" viewBox="0 0 450 450" fill="none" xmlns="http://www.w3.org/2000/svg">
<g clip-path="url(#clip0_394_714)">
<mask id="mask0_394_714" style="mask-type:luminance" maskUnits="userSpaceOnUse" x="0" y="0" width="450" height="450">
<path d="M450 0H0V450H450V0Z" fill="white"/>
</mask>
<g mask="url(#mask0_394_714)">
<path d="M178.665 107.194H294.783V158.553H178.665V107.194Z" fill="#F1F1F1"/>
<path d="M400.853 366.405C396.572 371.97 388.531 371.482 384.593 370.45C384.314 370.377 384.151 370.086 384.212 369.804C388.312 350.98 403.348 348.837 412.931 350.485C413.561 350.593 413.594 352.11 413.05 352.446C409.145 354.858 405.166 360.798 400.853 366.405Z" fill="#5C70DF"/>
<path d="M367.611 364.467C370.547 369.558 378.395 369.922 382.898 369.382C383.541 369.304 383.945 368.658 383.768 368.034C378.491 349.351 365.192 347.152 356.991 348.756C355.968 348.955 355.902 350.355 356.786 350.907C361.214 353.67 364.245 358.63 367.611 364.467Z" fill="#5C70DF"/>
<path fill-rule="evenodd" clip-rule="evenodd" d="M382.987 382.416V323.241H385.221V382.416H382.987Z" fill="#3E3D3D"/>
<path fill-rule="evenodd" clip-rule="evenodd" d="M427.661 144.937C418.823 125.847 398.696 113.431 376.542 115.422C348.345 117.956 327.542 142.869 330.075 171.066C332.61 199.263 357.522 220.066 385.719 217.531C392.138 216.955 398.172 215.218 403.637 212.548L382.431 166.987L427.661 144.937Z" fill="#5C70DF"/>
<path fill-rule="evenodd" clip-rule="evenodd" d="M410.231 208.347L391.724 171.045L429.57 151.155C430.64 154.58 431.363 158.171 431.697 161.889C433.392 180.749 424.646 198.14 410.231 208.347Z" fill="#F1F1F1"/>
<path d="M170.291 98.8196H286.409V150.18H170.291V98.8196Z" fill="white"/>
<path fill-rule="evenodd" clip-rule="evenodd" d="M169.175 97.7031H287.525V151.296H169.175V97.7031ZM171.407 99.9362V149.063H285.293V99.9362H171.407Z" fill="#3E3D3D"/>
<path fill-rule="evenodd" clip-rule="evenodd" d="M265.754 117.242H192.063V115.009H265.754V117.242ZM265.754 135.665H192.063V133.432H265.754V135.665Z" fill="#3E3D3D"/>
<path fill-rule="evenodd" clip-rule="evenodd" d="M118.986 249.646C120.243 247.47 123.026 246.724 125.202 247.981L138.114 255.436C140.29 256.692 141.036 259.476 139.779 261.651C138.75 263.434 139.065 265.671 140.404 267.234C144.159 271.614 147.015 276.619 148.89 281.952C149.574 283.897 151.357 285.288 153.418 285.288C155.935 285.288 157.977 287.329 157.977 289.846V304.746C157.977 307.26 155.938 309.298 153.423 309.298C151.366 309.298 149.586 310.687 148.901 312.627C147.967 315.27 146.779 317.865 145.327 320.38C143.875 322.894 142.222 325.221 140.4 327.351C139.063 328.915 138.75 331.15 139.779 332.932C141.036 335.11 140.29 337.896 138.112 339.153L125.21 346.602C123.03 347.86 120.242 347.113 118.983 344.934C117.952 343.149 115.855 342.3 113.83 342.679C108.273 343.722 102.511 343.752 96.8405 342.69C94.8172 342.312 92.7225 343.158 91.6931 344.94C90.4366 347.116 87.6536 347.862 85.4771 346.606L72.5654 339.151C70.3889 337.894 69.6433 335.112 70.8998 332.935C71.9291 331.153 71.6144 328.915 70.2746 327.352C66.5197 322.972 63.6647 317.968 61.7887 312.634C61.1047 310.69 59.3221 309.298 57.2608 309.298C54.743 309.298 52.7021 307.257 52.7021 304.74V289.842C52.7021 287.326 54.7406 285.288 57.2552 285.288C59.3131 285.288 61.0928 283.9 61.7783 281.959C62.7119 279.316 63.9005 276.721 65.3525 274.207C66.8047 271.692 68.4578 269.365 70.2799 267.235C71.6173 265.671 71.9302 263.436 70.9014 261.654C69.6442 259.476 70.3903 256.692 72.5678 255.435L85.4704 247.984C87.6507 246.726 90.4387 247.473 91.6975 249.654C92.728 251.439 94.8245 252.286 96.8503 251.907C102.407 250.864 108.168 250.834 113.839 251.896C115.862 252.276 117.957 251.43 118.986 249.646ZM127.953 310.35C120.742 322.839 104.773 327.117 92.2837 319.906C79.7946 312.696 75.5155 296.727 82.726 284.238C89.9366 271.749 105.906 267.469 118.396 274.68C130.885 281.89 135.164 297.861 127.953 310.35Z" fill="#F1F1F1"/>
<path d="M224.917 269.253C200.453 266.934 172.717 268.287 161.906 269.253C160.979 271.829 159.125 277.173 159.125 277.947C159.125 278.913 164.686 305.96 164.686 309.824C164.686 312.915 198.044 318.195 214.723 320.45C228.314 304.35 249.379 271.571 224.917 269.253Z" fill="#5C70DF"/>
<path d="M166.941 232.243H218.301V294.769H166.941V232.243Z" fill="#EFCB96"/>
<path d="M344.833 247.119C347.245 253.773 344.989 257.757 343.56 258.918L350.95 271.495L370.654 276.609C372.183 273.82 376.768 266.875 382.882 261.405C390.526 254.566 394.474 241.44 394.644 235.603C394.779 230.934 391.614 229.548 390.015 229.44C390.354 226.293 387.154 224.653 385.513 224.227C384.255 220.519 380.203 220.093 378.336 220.344L385.026 202.665C385.62 201.097 384.963 199.332 383.488 198.534L381.631 197.529C380.085 196.692 378.154 197.194 377.211 198.678L355.32 233.116L346.857 216.693C345.82 214.684 343.449 213.765 341.331 214.552L340.522 214.852C338.439 215.626 337.239 217.813 337.729 219.982C339.624 228.355 342.768 241.425 344.833 247.119Z" fill="#EFCB96"/>
<path d="M80.3426 367.932C73.8201 391.198 76.6153 407.02 81.2743 412.605C83.047 414.73 90.0897 421.992 98.3917 430.426H276.69C276.852 407.664 277.412 382.384 277.878 366.07C291.234 375.066 307.881 390.604 316.082 389.115C324.281 387.625 329.436 379.807 330.99 376.086L375.173 278.022C367.718 263.13 347.889 259.227 341.676 257.365L306.506 310.401C300.294 303.885 293.532 296.452 277.878 286.029C262.224 275.605 235.949 271.138 225.699 270.207C222.903 277.032 214.145 290.683 194.019 290.683C173.892 290.683 165.134 277.032 162.339 270.207C132.522 278.583 112.955 284.167 102.705 298.128C92.4557 312.088 86.8649 344.664 80.3426 367.932Z" fill="#5C70DF"/>
<path d="M226.066 177.354C238.798 213.424 233.556 239.311 226.066 244.525H167.08L156.781 238.084L144.61 215.08L162.399 177.354C178.315 162.324 213.333 141.283 226.066 177.354Z" fill="#EFCB96"/>
<path d="M166.997 247.548C157.517 245.685 140.989 236.424 140.301 215.139C139.363 186.145 142.176 162.763 161.864 160.893C162.801 153.721 168.24 139.006 182.49 137.51C200.304 135.639 222.806 137.51 234.056 131.898C245.307 126.286 248.12 131.898 251.87 135.639C255.62 139.38 258.432 173.052 224.681 176.793C216.552 177.693 210.164 177.889 204.992 177.772C197.178 177.757 181.178 180.159 179.678 189.886C177.803 202.045 179.678 214.204 175.928 214.204C172.178 214.204 174.99 207.657 167.49 202.045C163.427 201.733 155.301 203.728 155.301 214.204C155.301 222.243 161.192 225.288 165.767 226.129C167.687 226.482 169.365 228.028 169.365 229.98V245.478C169.365 246.772 168.269 247.798 166.997 247.548Z" fill="#3E3D3D"/>
<path fill-rule="evenodd" clip-rule="evenodd" d="M-0.537109 430.426C-0.537109 429.81 -0.0372253 429.31 0.579413 429.31H444.396C445.013 429.31 445.514 429.81 445.514 430.426C445.514 431.043 445.013 431.542 444.396 431.542H0.579413C-0.0372253 431.542 -0.537109 431.043 -0.537109 430.426Z" fill="#3E3D3D"/>
<path d="M164.708 417.028H228.35L232.817 430.426H169.175L164.708 417.028Z" fill="#F1F1F1"/>
<path d="M29.2482 336.96C28.3031 333.417 30.9743 329.94 34.6422 329.94H150.37C152.899 329.94 155.112 331.639 155.765 334.083L181.456 430.426H54.1724L29.2482 336.96Z" fill="#F1F1F1"/>
<path d="M394.712 322.123C396.419 330.657 389.088 340.21 384.699 344.454C384.348 344.793 383.816 344.848 383.411 344.577C376.86 340.189 369.438 327.361 376.289 317.658C379.136 313.626 381.245 308.577 382.568 304.258C382.94 303.048 386.202 302.745 386.814 303.855C389.463 308.664 393.215 314.643 394.712 322.123Z" fill="#5C70DF"/>
<path fill-rule="evenodd" clip-rule="evenodd" d="M304.508 188.646C305.189 187.517 306.654 187.154 307.784 187.835L314.478 191.87C315.606 192.551 315.969 194.018 315.29 195.146C314.732 196.07 314.876 197.246 315.563 198.078C317.487 200.412 318.933 203.064 319.865 205.878C320.204 206.904 321.125 207.651 322.205 207.672C323.525 207.698 324.575 208.787 324.549 210.107L324.402 217.917C324.377 219.236 323.288 220.284 321.969 220.259C320.891 220.239 319.944 220.949 319.566 221.96C319.05 223.335 318.401 224.684 317.615 225.987C316.829 227.292 315.939 228.495 314.964 229.593C314.247 230.4 314.061 231.569 314.582 232.514C315.219 233.667 314.801 235.121 313.647 235.758L306.809 239.535C305.654 240.173 304.2 239.754 303.561 238.598C303.039 237.653 301.949 237.186 300.882 237.366C297.959 237.857 294.938 237.816 291.977 237.203C290.919 236.984 289.812 237.407 289.256 238.331C288.575 239.46 287.109 239.823 285.98 239.142L279.285 235.107C278.157 234.426 277.794 232.961 278.474 231.831C279.032 230.907 278.888 229.731 278.201 228.899C276.276 226.566 274.829 223.914 273.899 221.099C273.56 220.073 272.639 219.326 271.559 219.305C270.239 219.281 269.189 218.19 269.214 216.87L269.361 209.06C269.387 207.741 270.476 206.693 271.794 206.718C272.873 206.739 273.819 206.028 274.197 205.019C274.713 203.642 275.361 202.293 276.149 200.99C276.935 199.685 277.824 198.482 278.801 197.384C279.516 196.577 279.704 195.408 279.182 194.463C278.544 193.31 278.963 191.858 280.116 191.22L286.955 187.443C288.11 186.804 289.565 187.224 290.202 188.379C290.724 189.324 291.816 189.791 292.881 189.611C295.805 189.12 298.826 189.162 301.787 189.774C302.844 189.993 303.951 189.57 304.508 188.646ZM308.607 220.557C304.703 227.033 296.289 229.118 289.814 225.213C283.337 221.31 281.253 212.895 285.156 206.42C289.061 199.944 297.474 197.859 303.95 201.764C310.427 205.667 312.51 214.082 308.607 220.557Z" fill="#F1F1F1"/>
<path fill-rule="evenodd" clip-rule="evenodd" d="M46.7 228C47.237 227.11 48.3941 226.822 49.2848 227.359L54.5682 230.545C55.4588 231.082 55.7456 232.239 55.2086 233.13C54.7688 233.859 54.8814 234.787 55.4235 235.444C56.9427 237.286 58.0848 239.379 58.8191 241.6C59.0868 242.41 59.8134 243 60.6662 243.015C61.7076 243.036 62.5361 243.895 62.5164 244.936L62.3997 251.101C62.3801 252.141 61.5208 252.969 60.4805 252.949C59.6292 252.933 58.8821 253.494 58.5833 254.29C58.1765 255.376 57.6644 256.441 57.044 257.47C56.4236 258.499 55.7216 259.449 54.9512 260.316C54.3857 260.952 54.2387 261.874 54.6504 262.62C55.1535 263.53 54.8231 264.678 53.9123 265.18L48.5162 268.161C47.6042 268.665 46.4567 268.333 45.9528 267.421C45.5405 266.676 44.6796 266.308 43.8386 266.449C41.5316 266.838 39.1476 266.805 36.8099 266.32C35.9757 266.148 35.1026 266.482 34.6628 267.211C34.1259 268.102 32.9687 268.389 32.0781 267.852L26.7945 264.667C25.904 264.13 25.6173 262.972 26.1542 262.081C26.594 261.352 26.4813 260.425 25.9392 259.767C24.42 257.926 23.2779 255.834 22.5435 253.612C22.2758 252.802 21.5492 252.213 20.6964 252.196C19.6548 252.177 18.8264 251.316 18.846 250.275L18.9627 244.111C18.9824 243.07 19.8417 242.244 20.882 242.263C21.7334 242.278 22.4805 241.719 22.7793 240.921C23.1863 239.835 23.6982 238.771 24.3186 237.741C24.9392 236.712 25.6413 235.762 26.4117 234.895C26.9772 234.259 27.1242 233.337 26.7125 232.591C26.2094 231.681 26.5398 230.535 27.4506 230.031L32.8469 227.05C33.7589 226.546 34.9064 226.878 35.4101 227.79C35.8226 228.537 36.6833 228.903 37.5243 228.762C39.8313 228.375 42.2151 228.408 44.5529 228.891C45.387 229.063 46.2602 228.73 46.7 228ZM49.9349 253.185C46.854 258.295 40.2135 259.941 35.103 256.86C29.9925 253.779 28.3472 247.138 31.428 242.028C34.5089 236.917 41.1494 235.272 46.2599 238.353C51.3704 241.434 53.0157 248.074 49.9349 253.185Z" fill="#F1F1F1"/>
<path d="M50.8232 103.286H69.8041V154.645H50.8232V103.286Z" fill="#F1F1F1"/>
<path d="M115.581 114.451H134.562V154.646H115.581V114.451Z" fill="#F1F1F1"/>
<path fill-rule="evenodd" clip-rule="evenodd" d="M127.863 180.883H51.9395V178.651H127.863V180.883ZM107.207 206.005H51.9395V203.772H107.207V206.005Z" fill="#F1F1F1"/>
<path fill-rule="evenodd" clip-rule="evenodd" d="M450.538 271.321H398.062V269.089H450.538V271.321ZM425.974 291.42H398.062V289.186H425.974V291.42Z" fill="#3E3D3D"/>
<path fill-rule="evenodd" clip-rule="evenodd" d="M303.156 116.684C303.156 116.067 303.657 115.567 304.274 115.567H331.601L351.474 139.984C351.864 140.463 351.792 141.166 351.314 141.555C350.835 141.944 350.132 141.872 349.743 141.394L330.539 117.8H304.274C303.657 117.8 303.156 117.301 303.156 116.684Z" fill="#3E3D3D"/>
<path d="M309.856 116.684C309.856 119.767 307.356 122.267 304.273 122.267C301.189 122.267 298.69 119.767 298.69 116.684C298.69 113.601 301.189 111.101 304.273 111.101C307.356 111.101 309.856 113.601 309.856 116.684Z" fill="#3E3D3D"/>
<path d="M424.857 248.433C424.857 251.517 422.358 254.016 419.274 254.016C416.191 254.016 413.692 251.517 413.692 248.433C413.692 245.351 416.191 242.852 419.274 242.852C422.358 242.852 424.857 245.351 424.857 248.433Z" fill="#3E3D3D"/>
<path fill-rule="evenodd" clip-rule="evenodd" d="M419.274 182.559C419.892 182.559 420.392 183.058 420.392 183.675V248.433C420.392 249.049 419.892 249.55 419.274 249.55C418.658 249.55 418.158 249.049 418.158 248.433V183.675C418.158 183.058 418.658 182.559 419.274 182.559Z" fill="#3E3D3D"/>
<path fill-rule="evenodd" clip-rule="evenodd" d="M278.594 334.406V365.669H276.36V334.406H278.594Z" fill="#3E3D3D"/>
<path fill-rule="evenodd" clip-rule="evenodd" d="M319.903 73.6978H126.746V68.1152H319.903V73.6978Z" fill="#F1F1F1"/>
</g>
</g>
<defs>
<clipPath id="clip0_394_714">
<rect width="450" height="450" fill="white"/>
</clipPath>
</defs>
</svg>
