<svg width="177" height="44" viewBox="0 0 177 44" fill="none" xmlns="http://www.w3.org/2000/svg">
<path d="M20.8945 6.69141L17.9062 9.54297C16.487 7.45964 14.8594 6.41797 13.0234 6.41797C11.6953 6.41797 10.5951 6.82812 9.72266 7.64844C8.85026 8.46875 8.41406 9.4974 8.41406 10.7344C8.41406 11.724 8.71354 12.5768 9.3125 13.293C9.61198 13.6315 10.0482 14.0156 10.6211 14.4453C11.207 14.875 11.9362 15.3503 12.8086 15.8711C15.3997 17.3815 17.1315 18.7487 18.0039 19.9727C18.8893 21.2096 19.332 22.8307 19.332 24.8359C19.332 27.4401 18.4727 29.5495 16.7539 31.1641C15.0612 32.7786 12.8281 33.5859 10.0547 33.5859C7.8151 33.5859 5.92057 33.1042 4.37109 32.1406C3.58984 31.6589 2.86068 31.0339 2.18359 30.2656C1.50651 29.4844 0.855469 28.5404 0.230469 27.4336L3.62891 25.1289C4.55339 26.7565 5.45833 27.8763 6.34375 28.4883C7.22917 29.1003 8.38151 29.4062 9.80078 29.4062C11.3763 29.4062 12.6068 28.9896 13.4922 28.1562C14.3906 27.3229 14.8398 26.138 14.8398 24.6016C14.8398 23.5469 14.5143 22.6549 13.8633 21.9258C13.5378 21.5482 13.0495 21.125 12.3984 20.6562C11.7604 20.1875 10.9466 19.6602 9.95703 19.0742C7.69141 17.7331 6.10938 16.457 5.21094 15.2461C4.35156 14.0352 3.92188 12.5182 3.92188 10.6953C3.92188 8.26042 4.76823 6.24219 6.46094 4.64062C8.15365 3.02604 10.2891 2.21875 12.8672 2.21875C14.5469 2.21875 15.9792 2.55729 17.1641 3.23438C18.375 3.91146 19.6185 5.0638 20.8945 6.69141ZM40.4461 14.6016L39.1375 25.3047C39.0333 26.2161 38.9031 27.0104 38.7469 27.6875C38.5906 28.3646 38.4214 28.931 38.2391 29.3867C37.8745 30.2591 37.2625 31.0339 36.4031 31.7109C34.9448 32.8568 33.0242 33.4297 30.6414 33.4297C28.3758 33.4297 26.5659 32.8503 25.2117 31.6914C23.8576 30.5195 23.1805 28.9505 23.1805 26.9844C23.1805 26.6849 23.1935 26.3333 23.2195 25.9297C23.2586 25.526 23.3107 25.0638 23.3758 24.543L24.5867 14.6016H28.9031L27.6336 24.9336C27.5815 25.3763 27.5424 25.7669 27.5164 26.1055C27.4904 26.431 27.4773 26.7044 27.4773 26.9258C27.4773 28.8659 28.6167 29.8359 30.8953 29.8359C32.1323 29.8359 33.0438 29.5169 33.6297 28.8789C34.2156 28.2409 34.6063 27.1211 34.8016 25.5195L36.1492 14.6016H40.4461ZM50.0367 14.6016L49.8414 16.1836C51.2997 14.8034 52.7711 14.1133 54.2555 14.1133C55.5576 14.1133 56.7424 14.5885 57.8102 15.5391L55.0563 19.0938C54.262 18.4167 53.4677 18.0781 52.6734 18.0781C52.1266 18.0781 51.6448 18.1888 51.2281 18.4102C50.8115 18.6185 50.4469 18.957 50.1344 19.4258C49.8349 19.8815 49.581 20.474 49.3727 21.2031C49.1773 21.9323 49.0211 22.8047 48.9039 23.8203L47.7711 33H43.4547L45.7203 14.6016H50.0367ZM66.0141 18.6055L64.2562 33H59.9398L61.7172 18.6055H58.9047L59.393 14.6016H62.2055L63.2211 6.37891C63.4815 4.19141 64.074 2.58333 64.9984 1.55469C65.9229 0.526042 67.2445 0.0117188 68.9633 0.0117188C70.0049 0.0117188 71.2224 0.34375 72.6156 1.00781L72.1469 4.79688C71.3396 4.14583 70.5974 3.82031 69.9203 3.82031C69.1391 3.82031 68.5596 4.08724 68.182 4.62109C67.8305 5.15495 67.5635 6.13802 67.3812 7.57031L66.5219 14.6016H70.4281L69.9398 18.6055H66.0141ZM91.8547 14.6016L89.5891 33H85.2727L85.5266 31.0078C83.6776 32.6224 81.7635 33.4297 79.7844 33.4297C77.3495 33.4297 75.3638 32.6029 73.8273 30.9492C72.2909 29.2956 71.5227 27.1536 71.5227 24.5234C71.5227 21.4896 72.4016 19.0026 74.1594 17.0625C75.9432 15.1224 78.2284 14.1523 81.0148 14.1523C82.33 14.1523 83.4497 14.3672 84.3742 14.7969C85.3117 15.2266 86.2688 15.9688 87.2453 17.0234L87.5383 14.6016H91.8547ZM86.6008 23.2734C86.6008 21.6458 86.132 20.3242 85.1945 19.3086C84.257 18.2799 83.0461 17.7656 81.5617 17.7656C79.9471 17.7656 78.593 18.3971 77.4992 19.6602C76.4055 20.9362 75.8586 22.4987 75.8586 24.3477C75.8586 25.9622 76.3143 27.2839 77.2258 28.3125C78.1372 29.3411 79.3091 29.8555 80.7414 29.8555C82.33 29.8555 83.7036 29.2109 84.8625 27.9219C86.0214 26.6068 86.6008 25.0573 86.6008 23.2734ZM103.203 0.0117188L99.1602 33H94.8438L98.9062 0.0117188H103.203ZM124.766 14.6016L108.106 43.5273H103.184L110.587 30.7148L104.005 14.6016H108.614L113.165 26.3594L119.825 14.6016H124.766ZM131.427 18.6055L129.65 33H125.334L127.111 18.6055H124.67L125.158 14.6016H127.599L128.654 6.06641H132.97L131.916 14.6016H135.9L135.412 18.6055H131.427ZM143.909 5.85156C143.909 6.47656 143.681 7.01693 143.225 7.47266C142.769 7.92839 142.222 8.15625 141.584 8.15625C140.946 8.15625 140.393 7.92188 139.924 7.45312C139.468 6.95833 139.241 6.39193 139.241 5.75391C139.241 5.11589 139.462 4.57552 139.905 4.13281C140.36 3.67708 140.901 3.44922 141.526 3.44922C142.164 3.44922 142.717 3.6901 143.186 4.17188C143.668 4.64062 143.909 5.20052 143.909 5.85156ZM142.561 14.6016L140.295 33H135.979L138.245 14.6016H142.561ZM161.409 16.3789L160.863 20.7734C159.977 19.6406 159.131 18.8268 158.323 18.332C157.529 17.8503 156.592 17.6094 155.511 17.6094C153.87 17.6094 152.523 18.2148 151.468 19.4258C150.413 20.6367 149.886 22.1927 149.886 24.0938C149.886 25.8776 150.381 27.3034 151.37 28.3711C152.373 29.4518 153.668 29.9922 155.257 29.9922C156.78 29.9922 158.356 29.3346 159.984 28.0195L159.417 32.5703C157.751 33.2474 156.162 33.5859 154.652 33.5859C151.956 33.5859 149.762 32.707 148.07 30.9492C146.39 29.1914 145.55 26.9128 145.55 24.1133C145.55 21.2357 146.455 18.8333 148.265 16.9062C150.088 14.9661 152.353 13.9961 155.062 13.9961C157.275 13.9961 159.391 14.7904 161.409 16.3789ZM176.332 16.6328L173.891 19.0742C172.745 18.0456 171.684 17.5312 170.707 17.5312C170.043 17.5312 169.49 17.7201 169.047 18.0977C168.617 18.4622 168.402 18.918 168.402 19.4648C168.402 19.9987 168.585 20.4479 168.949 20.8125C169.314 21.1901 170.076 21.6979 171.234 22.3359C172.888 23.2604 173.995 24.1068 174.555 24.875C175.154 25.6302 175.453 26.6133 175.453 27.8242C175.453 29.569 174.848 30.9688 173.637 32.0234C172.4 33.0651 170.792 33.5859 168.812 33.5859C166.117 33.5859 163.884 32.3685 162.113 29.9336L164.945 27.9609C166.104 29.3542 167.341 30.0508 168.656 30.0508C169.398 30.0508 169.991 29.8555 170.434 29.4648C170.889 29.0742 171.117 28.5664 171.117 27.9414C171.117 27.3945 170.928 26.9518 170.551 26.6133C170.368 26.444 170.049 26.2096 169.594 25.9102C169.138 25.6107 168.52 25.2526 167.738 24.8359C166.358 24.0677 165.401 23.319 164.867 22.5898C164.333 21.8216 164.066 20.8841 164.066 19.7773C164.066 18.1107 164.678 16.7305 165.902 15.6367C167.126 14.543 168.682 13.9961 170.57 13.9961C172.654 13.9961 174.574 14.875 176.332 16.6328Z" fill="#EFF0F4"/>
</svg>
