<svg width="170" height="58" viewBox="0 0 170 58" fill="none" xmlns="http://www.w3.org/2000/svg">
<path d="M24.1166 13.4436L21.0452 16.3745C19.5865 14.2332 17.9136 13.1625 16.0266 13.1625C14.6616 13.1625 13.5307 13.5841 12.634 14.4272C11.7374 15.2704 11.2891 16.3276 11.2891 17.599C11.2891 18.6161 11.5969 19.4927 12.2125 20.2287C12.5203 20.5767 12.9686 20.9715 13.5575 21.4131C14.1597 21.8548 14.9091 22.3433 15.8058 22.8786C18.469 24.431 20.249 25.8362 21.1456 27.0942C22.0557 28.3656 22.5107 30.0318 22.5107 32.0927C22.5107 34.7693 21.6274 36.9374 19.8608 38.5969C18.1211 40.2563 15.8259 41.0861 12.9753 41.0861C10.6734 41.0861 8.72622 40.5909 7.13365 39.6006C6.33067 39.1054 5.58123 38.463 4.88531 37.6734C4.1894 36.8705 3.52025 35.9002 2.87787 34.7626L6.37082 32.3939C7.32101 34.0667 8.25113 35.2177 9.16117 35.8467C10.0712 36.4757 11.2556 36.7902 12.7143 36.7902C14.3337 36.7902 15.5984 36.3619 16.5084 35.5054C17.4318 34.6489 17.8935 33.431 17.8935 31.8518C17.8935 30.7678 17.559 29.8511 16.8898 29.1016C16.5553 28.7135 16.0534 28.2786 15.3842 27.7968C14.7285 27.315 13.892 26.773 12.8749 26.1708C10.5463 24.7923 8.92028 23.4808 7.99685 22.2362C7.11358 20.9916 6.67194 19.4325 6.67194 17.5588C6.67194 15.0562 7.54183 12.9819 9.28161 11.3358C11.0214 9.67628 13.2162 8.84654 15.866 8.84654C17.5924 8.84654 19.0646 9.19449 20.2824 9.89041C21.527 10.5863 22.8051 11.7707 24.1166 13.4436Z" fill="#2B3673"/>
<path d="M41.3517 21.5737L40.0067 32.5745C39.8997 33.5113 39.7659 34.3277 39.6053 35.0236C39.4447 35.7195 39.2707 36.3017 39.0833 36.7701C38.7086 37.6667 38.0796 38.463 37.1963 39.1589C35.6974 40.3366 33.7234 40.9255 31.2744 40.9255C28.9457 40.9255 27.0855 40.3299 25.6937 39.1389C24.3018 37.9344 23.6059 36.3218 23.6059 34.3009C23.6059 33.9931 23.6193 33.6318 23.6461 33.2169C23.6862 32.802 23.7398 32.3269 23.8067 31.7916L25.0513 21.5737H29.4877L28.1829 32.1931C28.1294 32.6481 28.0892 33.0496 28.0625 33.3976C28.0357 33.7322 28.0223 34.0132 28.0223 34.2407C28.0223 36.2348 29.1933 37.2318 31.5353 37.2318C32.8067 37.2318 33.7435 36.9039 34.3458 36.2481C34.948 35.5924 35.3495 34.4414 35.5502 32.7953L36.9354 21.5737H41.3517Z" fill="#2B3673"/>
<path d="M47.5973 21.5737L47.3966 23.1998C48.8954 21.7812 50.4077 21.0719 51.9334 21.0719C53.2717 21.0719 54.4895 21.5603 55.5869 22.5373L52.7564 26.1909C51.9401 25.4949 51.1237 25.147 50.3073 25.147C49.7453 25.147 49.2501 25.2607 48.8218 25.4882C48.3936 25.7024 48.0189 26.0503 47.6977 26.5321C47.3899 27.0005 47.1289 27.6094 46.9148 28.3589C46.714 29.1083 46.5534 30.005 46.433 31.0489L45.2687 40.4839H40.8322L43.1608 21.5737H47.5973Z" fill="#2B3673"/>
<path d="M63.6159 25.689L61.8092 40.4839H57.3727L59.1995 25.689H56.3088L56.8107 21.5737H59.7014L60.7453 13.1224C61.0129 10.8741 61.6218 9.22126 62.572 8.16401C63.5222 7.10675 64.8806 6.57812 66.6471 6.57812C67.7178 6.57812 68.9691 6.91939 70.4011 7.60192L69.9193 11.4964C69.0895 10.8272 68.3267 10.4926 67.6308 10.4926C66.8278 10.4926 66.2323 10.767 65.8442 11.3157C65.4828 11.8644 65.2085 12.8748 65.0211 14.3469L64.1378 21.5737H68.1527L67.6509 25.689H63.6159Z" fill="#2B3673"/>
<path d="M88.6383 21.5737L86.3096 40.4839H81.8732L82.1342 38.4363C80.2338 40.0957 78.2665 40.9255 76.2323 40.9255C73.7297 40.9255 71.6888 40.0757 70.1096 38.376C68.5304 36.6764 67.7408 34.4749 67.7408 31.7715C67.7408 28.6533 68.6441 26.0972 70.4508 24.1031C72.2843 22.1091 74.633 21.112 77.497 21.112C78.8486 21.112 79.9996 21.3328 80.9498 21.7745C81.9133 22.2161 82.897 22.9789 83.9007 24.063L84.2018 21.5737H88.6383ZM83.2383 30.4868C83.2383 28.8139 82.7565 27.4555 81.7929 26.4117C80.8293 25.3544 79.5847 24.8258 78.0591 24.8258C76.3996 24.8258 75.0077 25.4749 73.8836 26.773C72.7594 28.0845 72.1973 29.6905 72.1973 31.5909C72.1973 33.2504 72.6657 34.6087 73.6025 35.666C74.5393 36.7232 75.7438 37.2519 77.2159 37.2519C78.8486 37.2519 80.2606 36.5894 81.4516 35.2645C82.6427 33.9128 83.2383 32.3202 83.2383 30.4868Z" fill="#2B3673"/>
<path d="M96.909 6.57812L92.7535 40.4839H88.3171L92.4926 6.57812H96.909Z" fill="#2B3673"/>
<path d="M117.692 21.5737L100.569 51.304H95.5102L103.118 38.1351L96.3533 21.5737H101.091L105.768 33.6585L112.614 21.5737H117.692Z" fill="#2B3673"/>
<path d="M125.305 25.689L123.478 40.4839H119.041L120.868 25.689H118.359L118.861 21.5737H121.37L122.454 12.8012H126.891L125.807 21.5737H129.902L129.4 25.689H125.305Z" fill="#2B3673"/>
<path d="M137.354 12.5804C137.354 13.2228 137.12 13.7782 136.652 14.2466C136.183 14.715 135.621 14.9492 134.965 14.9492C134.31 14.9492 133.741 14.7083 133.259 14.2265C132.791 13.7179 132.556 13.1358 132.556 12.48C132.556 11.8242 132.784 11.2689 133.239 10.8138C133.707 10.3454 134.263 10.1112 134.905 10.1112C135.561 10.1112 136.13 10.3588 136.611 10.854C137.107 11.3358 137.354 11.9112 137.354 12.5804ZM135.969 21.5737L133.64 40.4839H129.204L131.533 21.5737H135.969Z" fill="#2B3673"/>
<path d="M153.13 23.4005L152.568 27.9173C151.658 26.7529 150.788 25.9165 149.958 25.4079C149.142 24.9128 148.179 24.6652 147.068 24.6652C145.381 24.6652 143.996 25.2875 142.912 26.5321C141.828 27.7767 141.286 29.376 141.286 31.3299C141.286 33.1634 141.795 34.6288 142.812 35.7262C143.842 36.837 145.174 37.3924 146.807 37.3924C148.373 37.3924 149.992 36.7166 151.665 35.3649L151.083 40.0422C149.37 40.7381 147.737 41.0861 146.184 41.0861C143.414 41.0861 141.159 40.1827 139.419 38.376C137.693 36.5693 136.83 34.2273 136.83 31.35C136.83 28.3923 137.76 25.9232 139.62 23.9425C141.494 21.9485 143.822 20.9514 146.606 20.9514C148.881 20.9514 151.056 21.7678 153.13 23.4005Z" fill="#2B3673"/>
<path d="M167.276 23.6615L164.767 26.1708C163.589 25.1135 162.499 24.5849 161.495 24.5849C160.812 24.5849 160.244 24.779 159.789 25.1671C159.347 25.5418 159.126 26.0102 159.126 26.5723C159.126 27.121 159.313 27.5827 159.688 27.9574C160.063 28.3455 160.846 28.8674 162.037 29.5232C163.736 30.4734 164.874 31.3433 165.45 32.1329C166.065 32.9091 166.373 33.9195 166.373 35.1641C166.373 36.9574 165.751 38.3961 164.506 39.4801C163.235 40.5508 161.582 41.0861 159.548 41.0861C156.777 41.0861 154.482 39.8348 152.662 37.3322L155.573 35.3046C156.764 36.7366 158.035 37.4526 159.387 37.4526C160.15 37.4526 160.759 37.2519 161.214 36.8504C161.682 36.4489 161.916 35.927 161.916 35.2846C161.916 34.7225 161.722 34.2675 161.334 33.9195C161.147 33.7455 160.819 33.5046 160.351 33.1968C159.882 32.889 159.247 32.521 158.444 32.0927C157.025 31.3031 156.041 30.5336 155.493 29.7842C154.944 28.9946 154.67 28.031 154.67 26.8935C154.67 25.1804 155.299 23.7618 156.557 22.6377C157.815 21.5135 159.414 20.9514 161.354 20.9514C163.496 20.9514 165.47 21.8548 167.276 23.6615Z" fill="#2B3673"/>
</svg>
