<svg width="1188" height="470" viewBox="0 0 1188 470" fill="none" xmlns="http://www.w3.org/2000/svg">
<rect width="1188" height="470" fill="#262626"/>
<path d="M750.5 272.584H437V91C444.443 197.601 510.768 208.226 750.5 223.5V272.584Z" fill="url(#paint0_linear_54_42)"/>
<g opacity="0.6">
<path d="M439 167.5H463C463.828 167.5 464.5 168.172 464.5 169V260.5H437.5V169C437.5 168.172 438.172 167.5 439 167.5Z" stroke="url(#paint1_linear_54_42)"/>
<path d="M467 187.5H492C492.828 187.5 493.5 188.172 493.5 189V260.5H465.5V189C465.5 188.172 466.172 187.5 467 187.5Z" stroke="url(#paint2_linear_54_42)"/>
<path d="M496 199.7H520C520.828 199.7 521.5 200.372 521.5 201.2V260.5H494.5V201.2C494.5 200.372 495.172 199.7 496 199.7Z" stroke="url(#paint3_linear_54_42)"/>
<path d="M524 205.708H549C549.828 205.708 550.5 206.38 550.5 207.208V260.5H522.5V207.208C522.5 206.38 523.172 205.708 524 205.708Z" stroke="url(#paint4_linear_54_42)"/>
<path d="M553 209.142H577C577.828 209.142 578.5 209.813 578.5 210.642V260.5H551.5V210.642C551.5 209.813 552.172 209.142 553 209.142Z" stroke="url(#paint5_linear_54_42)"/>
<path d="M581 214.292H606C606.828 214.292 607.5 214.963 607.5 215.792V260.5H579.5V215.792C579.5 214.963 580.172 214.292 581 214.292Z" stroke="url(#paint6_linear_54_42)"/>
<path d="M610 216.867H634C634.828 216.867 635.5 217.538 635.5 218.367V260.5H608.5V218.367C608.5 217.538 609.172 216.867 610 216.867Z" stroke="url(#paint7_linear_54_42)"/>
<path d="M638 220.3H663C663.828 220.3 664.5 220.972 664.5 221.8V260.5H636.5V221.8C636.5 220.972 637.172 220.3 638 220.3Z" stroke="url(#paint8_linear_54_42)"/>
<path d="M667 223.733H692C692.828 223.733 693.5 224.405 693.5 225.233V260.5H665.5V225.233C665.5 224.405 666.172 223.733 667 223.733Z" stroke="url(#paint9_linear_54_42)"/>
<path d="M696 224.592H720C720.828 224.592 721.5 225.263 721.5 226.092V260.5H694.5V226.092C694.5 225.263 695.172 224.592 696 224.592Z" stroke="url(#paint10_linear_54_42)"/>
<path d="M724 225.45H749C749.828 225.45 750.5 226.122 750.5 226.95V260.5H722.5V226.95C722.5 226.122 723.172 225.45 724 225.45Z" stroke="url(#paint11_linear_54_42)"/>
</g>
<path d="M703.294 215.105C703.01 212.119 610.615 183.226 600.625 181.16C590.635 179.095 498.417 162.692 506.481 173.528C514.545 184.364 520.876 190.241 535.237 198.671C549.599 207.101 695.972 229.361 703.294 215.105Z" fill="#FEFEFE" stroke="#FEFEFE"/>
<path d="M612.294 192.084L601.794 186.834C601.414 185.344 602.91 184.594 602.637 183.084C600.275 163.322 601.349 145.311 604.794 133.584L615.294 138.084C615.294 153.084 610.137 171.084 607.137 183.834C609.173 190.281 611.451 185.031 612.294 192.084Z" fill="#FEFEFE" stroke="#FEFEFE"/>
<mask id="path-15-inside-1_54_42" fill="white">
<path d="M607.048 143.544C608.901 144.083 610.899 144.222 612.841 143.948C614.783 143.674 616.601 142.996 618.112 141.983C619.623 140.97 620.775 139.657 621.453 138.176C622.13 136.694 622.309 135.096 621.971 133.542L610.887 135.084L607.048 143.544Z"/>
</mask>
<path d="M607.048 143.544C608.901 144.083 610.899 144.222 612.841 143.948C614.783 143.674 616.601 142.996 618.112 141.983C619.623 140.97 620.775 139.657 621.453 138.176C622.13 136.694 622.309 135.096 621.971 133.542L610.887 135.084L607.048 143.544Z" fill="#FEFEFE" stroke="#FEFEFE" stroke-width="2" mask="url(#path-15-inside-1_54_42)"/>
<path d="M565.887 156.085L559.887 171.835C557.637 175.585 562.887 180.085 562.137 182.335L547.887 176.335C548.637 171.085 551.637 176.335 554.637 169.585C553.137 160.585 556.137 134.335 557.25 132.085C558.363 129.835 577.887 123.835 598.887 125.335L604.887 139.585C584.637 141.835 585.361 140.604 566.637 138.085C568.692 144.573 568.5 149.335 565.887 156.085Z" fill="#FEFEFE" stroke="#FEFEFE"/>
<ellipse cx="604.757" cy="72.0102" rx="11.087" ry="12.75" transform="rotate(-14.1246 604.757 72.0102)" fill="#FEFEFE"/>
<path d="M587.557 95.0166C587.557 95.0166 591.56 109.961 599.162 125.855L598 82L592.851 80.333C582.666 75.6308 572.359 74.537 537.672 68.5128C537.672 68.5128 530.25 65.3345 530.938 66.3286C531.627 67.3227 534.95 69.7118 534.95 69.7118C534.95 69.7118 533.691 71.2118 533.574 71.4205C533.457 71.6293 537.468 72.4053 537.468 72.4053C550.65 73.462 587.557 95.0166 587.557 95.0166Z" fill="#FEFEFE" stroke="#FEFEFE"/>
<path d="M612.201 82.2257L597.018 82.2257L598.041 124.54L604 137L615.317 138.639L621 133.5L612.201 82.2257Z" fill="#FEFEFE" stroke="#FEFEFE"/>
<path d="M622.605 111.352L621.5 134.5L613 82.5C615.782 84.3393 623.82 84.3414 655.013 130.509C657.775 133.18 657.755 133.143 661.007 134.837C664.26 136.53 655.587 134.344 655.587 134.344C655.587 134.344 654.015 135.913 653.691 135.173C653.607 134.98 653.612 134.64 653.612 134.64C632.929 112.598 622.043 101.311 622.605 111.352Z" fill="#FEFEFE" stroke="#FEFEFE"/>
<path d="M471.633 308.781L465.468 314.664C462.54 310.366 459.182 308.217 455.394 308.217C452.654 308.217 450.384 309.063 448.584 310.756C446.784 312.448 445.884 314.57 445.884 317.122C445.884 319.164 446.502 320.924 447.738 322.401C448.355 323.1 449.255 323.892 450.437 324.779C451.646 325.665 453.151 326.646 454.95 327.72C460.296 330.836 463.869 333.657 465.669 336.182C467.496 338.734 468.409 342.079 468.409 346.216C468.409 351.589 466.636 355.941 463.09 359.272C459.598 362.603 454.991 364.268 449.269 364.268C444.648 364.268 440.74 363.275 437.543 361.287C435.931 360.293 434.427 359.003 433.03 357.418C431.633 355.806 430.289 353.859 429 351.575L436.011 346.82C437.919 350.178 439.786 352.489 441.613 353.751C443.439 355.014 445.817 355.645 448.745 355.645C451.995 355.645 454.534 354.786 456.361 353.066C458.214 351.347 459.141 348.902 459.141 345.732C459.141 343.556 458.47 341.716 457.126 340.212C456.455 339.433 455.447 338.56 454.104 337.593C452.788 336.626 451.109 335.538 449.067 334.329C444.393 331.562 441.129 328.929 439.275 326.431C437.502 323.932 436.616 320.803 436.616 317.042C436.616 312.018 438.362 307.854 441.854 304.55C445.347 301.219 449.752 299.553 455.071 299.553C458.537 299.553 461.492 300.252 463.936 301.649C466.435 303.046 469 305.423 471.633 308.781Z" fill="white"/>
<path d="M506.229 325.101L503.529 347.183C503.315 349.064 503.046 350.702 502.724 352.099C502.401 353.496 502.052 354.665 501.676 355.605C500.924 357.405 499.661 359.003 497.888 360.4C494.879 362.764 490.917 363.946 486.001 363.946C481.327 363.946 477.592 362.751 474.799 360.36C472.005 357.942 470.608 354.705 470.608 350.648C470.608 350.031 470.635 349.305 470.688 348.473C470.769 347.64 470.876 346.686 471.011 345.612L473.509 325.101H482.414L479.795 346.417C479.688 347.331 479.607 348.137 479.553 348.835C479.5 349.507 479.473 350.071 479.473 350.528C479.473 354.53 481.823 356.532 486.525 356.532C489.077 356.532 490.957 355.874 492.166 354.557C493.375 353.241 494.181 350.931 494.584 347.626L497.364 325.101H506.229Z" fill="white"/>
<path d="M518.766 325.101L518.363 328.365C521.372 325.517 524.408 324.094 527.47 324.094C530.156 324.094 532.601 325.074 534.804 327.035L529.122 334.369C527.483 332.972 525.845 332.274 524.206 332.274C523.078 332.274 522.084 332.502 521.224 332.959C520.365 333.388 519.612 334.087 518.968 335.054C518.35 335.994 517.826 337.217 517.396 338.721C516.993 340.225 516.671 342.025 516.429 344.121L514.092 363.06H505.186L509.861 325.101H518.766Z" fill="white"/>
<path d="M550.921 333.362L547.294 363.06H538.389L542.055 333.362H536.253L537.26 325.101H543.063L545.158 308.136C545.696 303.623 546.918 300.306 548.825 298.183C550.733 296.061 553.459 295 557.005 295C559.154 295 561.666 295.685 564.541 297.055L563.573 304.872C561.908 303.529 560.377 302.858 558.98 302.858C557.368 302.858 556.172 303.408 555.393 304.51C554.668 305.611 554.117 307.639 553.741 310.594L551.968 325.101H560.027L559.02 333.362H550.921Z" fill="white"/>
<path d="M601.148 325.101L596.474 363.06H587.569L588.093 358.949C584.278 362.281 580.329 363.946 576.246 363.946C571.222 363.946 567.125 362.24 563.955 358.829C560.786 355.417 559.201 350.998 559.201 345.571C559.201 339.312 561.014 334.181 564.64 330.178C568.321 326.176 573.035 324.174 578.784 324.174C581.498 324.174 583.808 324.617 585.715 325.504C587.649 326.39 589.624 327.922 591.639 330.098L592.243 325.101H601.148ZM590.309 342.992C590.309 339.634 589.342 336.908 587.408 334.812C585.473 332.69 582.975 331.629 579.913 331.629C576.581 331.629 573.788 332.932 571.531 335.538C569.275 338.17 568.146 341.394 568.146 345.209C568.146 348.54 569.086 351.266 570.967 353.389C572.847 355.511 575.265 356.572 578.22 356.572C581.498 356.572 584.332 355.242 586.723 352.583C589.113 349.869 590.309 346.673 590.309 342.992Z" fill="white"/>
<path d="M617.75 295L609.409 363.06H600.504L608.885 295H617.75Z" fill="white"/>
<path d="M659.469 325.101L625.097 384.779H614.943L630.215 358.345L616.635 325.101H626.145L635.534 349.359L649.275 325.101H659.469Z" fill="white"/>
<path d="M674.75 333.362L671.083 363.06H662.177L665.844 333.362H660.807L661.815 325.101H666.852L669.028 307.492H677.933L675.757 325.101H683.977L682.97 333.362H674.75Z" fill="white"/>
<path d="M698.937 307.048C698.937 308.338 698.467 309.453 697.526 310.393C696.586 311.333 695.458 311.803 694.142 311.803C692.825 311.803 691.683 311.32 690.716 310.353C689.776 309.332 689.306 308.163 689.306 306.847C689.306 305.531 689.763 304.416 690.676 303.502C691.616 302.562 692.731 302.092 694.021 302.092C695.337 302.092 696.479 302.589 697.446 303.583C698.44 304.55 698.937 305.705 698.937 307.048ZM696.156 325.101L691.482 363.06H682.577L687.251 325.101H696.156Z" fill="white"/>
<path d="M730.604 328.768L729.476 337.834C727.649 335.497 725.903 333.818 724.238 332.797C722.599 331.803 720.665 331.307 718.435 331.307C715.05 331.307 712.27 332.556 710.094 335.054C707.918 337.552 706.83 340.763 706.83 344.685C706.83 348.365 707.851 351.307 709.892 353.509C711.961 355.739 714.634 356.854 717.911 356.854C721.054 356.854 724.305 355.497 727.663 352.784L726.494 362.173C723.056 363.57 719.778 364.268 716.662 364.268C711.101 364.268 706.575 362.455 703.082 358.829C699.617 355.202 697.884 350.501 697.884 344.725C697.884 338.788 699.751 333.832 703.485 329.856C707.246 325.853 711.921 323.852 717.508 323.852C722.075 323.852 726.44 325.49 730.604 328.768Z" fill="white"/>
<path d="M759 329.292L753.963 334.329C751.599 332.206 749.41 331.145 747.395 331.145C746.025 331.145 744.883 331.535 743.97 332.314C743.083 333.066 742.64 334.006 742.64 335.135C742.64 336.236 743.016 337.163 743.768 337.915C744.52 338.694 746.092 339.742 748.483 341.058C751.895 342.965 754.178 344.712 755.333 346.297C756.569 347.855 757.187 349.883 757.187 352.381C757.187 355.981 755.938 358.869 753.439 361.045C750.887 363.194 747.569 364.268 743.486 364.268C737.925 364.268 733.318 361.757 729.665 356.733L735.508 352.663C737.898 355.538 740.451 356.975 743.164 356.975C744.695 356.975 745.917 356.572 746.831 355.766C747.771 354.96 748.241 353.912 748.241 352.623C748.241 351.495 747.852 350.581 747.072 349.883C746.696 349.534 746.038 349.05 745.098 348.432C744.158 347.814 742.882 347.076 741.27 346.216C738.422 344.631 736.448 343.086 735.346 341.582C734.245 339.997 733.694 338.063 733.694 335.779C733.694 332.341 734.957 329.493 737.482 327.237C740.007 324.98 743.217 323.852 747.113 323.852C751.411 323.852 755.373 325.665 759 329.292Z" fill="white"/>
<defs>
<linearGradient id="paint0_linear_54_42" x1="593.75" y1="67.6199" x2="593.75" y2="272.584" gradientUnits="userSpaceOnUse">
<stop stop-color="white"/>
<stop offset="0.661407" stop-color="white" stop-opacity="0.55"/>
<stop offset="1" stop-color="#D9D9D9" stop-opacity="0"/>
</linearGradient>
<linearGradient id="paint1_linear_54_42" x1="451" y1="219.64" x2="451" y2="261" gradientUnits="userSpaceOnUse">
<stop stop-color="white"/>
<stop offset="1" stop-color="#B8B8B8" stop-opacity="0"/>
</linearGradient>
<linearGradient id="paint2_linear_54_42" x1="479.5" y1="228.44" x2="479.5" y2="261" gradientUnits="userSpaceOnUse">
<stop stop-color="white"/>
<stop offset="1" stop-color="#B8B8B8" stop-opacity="0"/>
</linearGradient>
<linearGradient id="paint3_linear_54_42" x1="508" y1="233.808" x2="508" y2="261" gradientUnits="userSpaceOnUse">
<stop stop-color="white"/>
<stop offset="1" stop-color="#B8B8B8" stop-opacity="0"/>
</linearGradient>
<linearGradient id="paint4_linear_54_42" x1="536.5" y1="236.452" x2="536.5" y2="261" gradientUnits="userSpaceOnUse">
<stop stop-color="white"/>
<stop offset="1" stop-color="#B8B8B8" stop-opacity="0"/>
</linearGradient>
<linearGradient id="paint5_linear_54_42" x1="565" y1="237.962" x2="565" y2="261" gradientUnits="userSpaceOnUse">
<stop stop-color="white"/>
<stop offset="1" stop-color="#B8B8B8" stop-opacity="0"/>
</linearGradient>
<linearGradient id="paint6_linear_54_42" x1="593.5" y1="240.228" x2="593.5" y2="261" gradientUnits="userSpaceOnUse">
<stop stop-color="white"/>
<stop offset="1" stop-color="#B8B8B8" stop-opacity="0"/>
</linearGradient>
<linearGradient id="paint7_linear_54_42" x1="622" y1="241.361" x2="622" y2="261" gradientUnits="userSpaceOnUse">
<stop stop-color="white"/>
<stop offset="1" stop-color="#B8B8B8" stop-opacity="0"/>
</linearGradient>
<linearGradient id="paint8_linear_54_42" x1="650.5" y1="242.872" x2="650.5" y2="261" gradientUnits="userSpaceOnUse">
<stop stop-color="white"/>
<stop offset="1" stop-color="#B8B8B8" stop-opacity="0"/>
</linearGradient>
<linearGradient id="paint9_linear_54_42" x1="679.5" y1="244.383" x2="679.5" y2="261" gradientUnits="userSpaceOnUse">
<stop stop-color="white"/>
<stop offset="1" stop-color="#B8B8B8" stop-opacity="0"/>
</linearGradient>
<linearGradient id="paint10_linear_54_42" x1="708" y1="244.76" x2="708" y2="261" gradientUnits="userSpaceOnUse">
<stop stop-color="white"/>
<stop offset="1" stop-color="#B8B8B8" stop-opacity="0"/>
</linearGradient>
<linearGradient id="paint11_linear_54_42" x1="736.5" y1="245.138" x2="736.5" y2="261" gradientUnits="userSpaceOnUse">
<stop stop-color="white"/>
<stop offset="1" stop-color="#B8B8B8" stop-opacity="0"/>
</linearGradient>
</defs>
</svg>
